G04 PROTEUS GERBER X2 FILE*
%TF.GenerationSoftware,Labcenter,Proteus,8.12-SP2-Build31155*%
%TF.CreationDate,2024-12-03T23:36:33+00:00*%
%TF.FileFunction,Soldermask,Bot*%
%TF.FilePolarity,Negative*%
%TF.Part,Single*%
%TF.SameCoordinates,{80aaee04-2193-4ab7-8769-78595995fdec}*%
%FSLAX45Y45*%
%MOMM*%
G01*
%TA.AperFunction,Material*%
%ADD27C,1.270000*%
%ADD28C,0.812800*%
%TA.AperFunction,Material*%
%ADD72C,1.778000*%
%AMPPAD023*
4,1,36,
1.016000,-1.143000,
-1.016000,-1.143000,
-1.041970,-1.140470,
-1.065980,-1.133200,
-1.087580,-1.121650,
-1.106290,-1.106290,
-1.121650,-1.087570,
-1.133200,-1.065980,
-1.140470,-1.041970,
-1.143000,-1.016000,
-1.143000,1.016000,
-1.140470,1.041970,
-1.133200,1.065980,
-1.121650,1.087570,
-1.106290,1.106290,
-1.087580,1.121650,
-1.065980,1.133200,
-1.041970,1.140470,
-1.016000,1.143000,
1.016000,1.143000,
1.041970,1.140470,
1.065980,1.133200,
1.087580,1.121650,
1.106290,1.106290,
1.121650,1.087570,
1.133200,1.065980,
1.140470,1.041970,
1.143000,1.016000,
1.143000,-1.016000,
1.140470,-1.041970,
1.133200,-1.065980,
1.121650,-1.087570,
1.106290,-1.106290,
1.087580,-1.121650,
1.065980,-1.133200,
1.041970,-1.140470,
1.016000,-1.143000,
0*%
%TA.AperFunction,Material*%
%ADD73PPAD023*%
%AMPPAD024*
4,1,36,
1.143000,1.016000,
1.143000,-1.016000,
1.140470,-1.041970,
1.133200,-1.065980,
1.121650,-1.087580,
1.106290,-1.106290,
1.087570,-1.121650,
1.065980,-1.133200,
1.041970,-1.140470,
1.016000,-1.143000,
-1.016000,-1.143000,
-1.041970,-1.140470,
-1.065980,-1.133200,
-1.087570,-1.121650,
-1.106290,-1.106290,
-1.121650,-1.087580,
-1.133200,-1.065980,
-1.140470,-1.041970,
-1.143000,-1.016000,
-1.143000,1.016000,
-1.140470,1.041970,
-1.133200,1.065980,
-1.121650,1.087580,
-1.106290,1.106290,
-1.087570,1.121650,
-1.065980,1.133200,
-1.041970,1.140470,
-1.016000,1.143000,
1.016000,1.143000,
1.041970,1.140470,
1.065980,1.133200,
1.087570,1.121650,
1.106290,1.106290,
1.121650,1.087580,
1.133200,1.065980,
1.140470,1.041970,
1.143000,1.016000,
0*%
%TA.AperFunction,Material*%
%ADD30PPAD024*%
%TA.AperFunction,Material*%
%ADD31C,2.286000*%
%AMPPAD029*
4,1,4,
0.304800,-0.279400,
0.304800,0.279400,
-0.304800,0.279400,
-0.304800,-0.279400,
0.304800,-0.279400,
0*%
%ADD35PPAD029*%
%AMPPAD030*
4,1,4,
-0.571500,-0.723900,
0.571500,-0.723900,
0.571500,0.723900,
-0.571500,0.723900,
-0.571500,-0.723900,
0*%
%ADD36PPAD030*%
%AMPPAD031*
4,1,4,
0.723900,-0.571500,
0.723900,0.571500,
-0.723900,0.571500,
-0.723900,-0.571500,
0.723900,-0.571500,
0*%
%ADD37PPAD031*%
%AMPPAD032*
4,1,4,
0.279400,0.304800,
-0.279400,0.304800,
-0.279400,-0.304800,
0.279400,-0.304800,
0.279400,0.304800,
0*%
%ADD38PPAD032*%
%TA.AperFunction,Profile*%
%ADD71C,0.203200*%
%TD.AperFunction*%
D27*
X+789693Y+2343385D03*
X+784147Y+2543036D03*
D28*
X+1198753Y+3933364D03*
X+1014599Y+3931705D03*
X+1237162Y+4130388D03*
X+1440000Y+4090000D03*
D27*
X+1205776Y+4027002D03*
X+1252449Y+3856307D03*
D28*
X+1591667Y+3415719D03*
X+1777934Y+3393142D03*
X+1507000Y+2690408D03*
X+1820000Y+2680000D03*
X+680000Y+1450000D03*
X+476888Y+1440164D03*
X+3424240Y+1113763D03*
X+3554133Y+1125052D03*
X+6926426Y+880000D03*
X+3424249Y+886105D03*
X+6835107Y+1145748D03*
X+6878710Y+1303793D03*
X+4543274Y+1079978D03*
X+5550000Y+500000D03*
X+4505817Y+1518657D03*
X+6113914Y+1331140D03*
D27*
X+4080057Y+578003D03*
X+3919246Y+581817D03*
X+5914579Y+1501298D03*
X+5884069Y+1722146D03*
D28*
X+5490481Y+1026892D03*
X+5610616Y+1175631D03*
X+6045390Y+1501711D03*
X+5307418Y+1049775D03*
X+5364625Y+1427342D03*
X+5850886Y+1415900D03*
X+4559114Y+1445673D03*
X+4607125Y+3285856D03*
X+4923906Y+3481684D03*
X+5338598Y+3274337D03*
X+4067221Y+2990000D03*
X+4173801Y+2988029D03*
X+3946414Y+1764494D03*
X+4821474Y+2504035D03*
X+3977390Y+1989067D03*
X+4182603Y+1989067D03*
X+3958030Y+2558243D03*
X+4235877Y+2554371D03*
D27*
X+5317384Y+3063736D03*
X+5445549Y+3255983D03*
D28*
X+6102566Y+2518038D03*
X+6113735Y+2657569D03*
X+5893384Y+2510249D03*
X+5885604Y+3032348D03*
X+6255130Y+3032348D03*
X+6210000Y+2880000D03*
X+6266799Y+2211613D03*
X+6600000Y+2210000D03*
X+6330000Y+1969523D03*
X+6542970Y+3339637D03*
X+6772465Y+2974001D03*
X+6601316Y+3386314D03*
D27*
X+3365613Y+2254080D03*
X+3381196Y+2024234D03*
X+830000Y+3780000D03*
X+870000Y+3420000D03*
X+917575Y+3562425D03*
X+721160Y+3731160D03*
X+3005709Y+2717114D03*
X+956482Y+3853054D03*
X+1085833Y+3389429D03*
X+4969806Y+1253850D03*
X+636635Y+2953376D03*
X+1295154Y+3176454D03*
X+1636172Y+3182161D03*
X+2567655Y+552887D03*
X+2567655Y+975951D03*
X+1807223Y+1207528D03*
X+3941541Y+1066256D03*
X+4255121Y+1662059D03*
X+4345276Y+1936440D03*
X+2957683Y+3237798D03*
X+3413378Y+726584D03*
X+2656009Y+2463916D03*
X+440000Y+2710000D03*
X+626927Y+2699996D03*
X+978975Y+3109858D03*
X+4620377Y+1026401D03*
X+4549076Y+705610D03*
X+4267131Y+1477231D03*
X+6170923Y+1716666D03*
D28*
X+5996374Y+3713260D03*
X+4870587Y+3327143D03*
X+3248585Y+2336264D03*
X+3264092Y+1722198D03*
D27*
X+5730000Y+4640000D03*
X+5708072Y+4306734D03*
D28*
X+6107519Y+4205339D03*
X+6088422Y+3700587D03*
X+2004762Y+3494244D03*
X+3199266Y+3313056D03*
X+3130000Y+3050000D03*
X+3561643Y+3037917D03*
X+444081Y+2993140D03*
X+3990000Y+100000D03*
X+955604Y+89386D03*
X+4690383Y+812586D03*
X+4385797Y+799953D03*
X+4405728Y+425747D03*
X+4119100Y+295913D03*
X+3959331Y+6331D03*
X+1790731Y+25947D03*
X+1608838Y+886688D03*
X+2250000Y+1150000D03*
D72*
X+641000Y+4876000D03*
X+260000Y+4622000D03*
X+641000Y+4622000D03*
X+260000Y+4368000D03*
X+641000Y+4368000D03*
X+260000Y+4114000D03*
X+641000Y+4114000D03*
X+260000Y+3860000D03*
X+641000Y+3860000D03*
X+260000Y+3606000D03*
X+641000Y+3606000D03*
X+260000Y+3352000D03*
X+641000Y+3352000D03*
X+260000Y+3098000D03*
X+641000Y+3098000D03*
X+260000Y+2844000D03*
X+641000Y+2844000D03*
X+260000Y+2590000D03*
X+641000Y+2590000D03*
X+260000Y+2336000D03*
X+641000Y+2336000D03*
X+260000Y+2082000D03*
X+641000Y+2082000D03*
X+260000Y+1828000D03*
X+641000Y+1828000D03*
X+260000Y+1574000D03*
X+641000Y+1574000D03*
X+260000Y+1320000D03*
X+641000Y+1320000D03*
X+260000Y+1066000D03*
X+641000Y+1066000D03*
X+260000Y+812000D03*
X+641000Y+812000D03*
X+260000Y+558000D03*
X+641000Y+558000D03*
X+260000Y+304000D03*
X+641000Y+304000D03*
X+6737000Y+4880000D03*
X+6356000Y+4626000D03*
X+6737000Y+4626000D03*
X+6356000Y+4372000D03*
X+6737000Y+4372000D03*
X+6356000Y+4118000D03*
X+6737000Y+4118000D03*
X+6356000Y+3864000D03*
X+6737000Y+3864000D03*
X+6356000Y+3610000D03*
X+6737000Y+3610000D03*
X+6356000Y+3356000D03*
X+6737000Y+3356000D03*
X+6356000Y+3102000D03*
X+6737000Y+3102000D03*
X+6356000Y+2848000D03*
X+6737000Y+2848000D03*
X+6356000Y+2594000D03*
X+6737000Y+2594000D03*
X+6356000Y+2340000D03*
X+6737000Y+2340000D03*
X+6356000Y+2086000D03*
X+6737000Y+2086000D03*
X+6356000Y+1832000D03*
X+6737000Y+1832000D03*
X+6356000Y+1578000D03*
X+6737000Y+1578000D03*
X+6356000Y+1324000D03*
X+6737000Y+1324000D03*
X+6356000Y+1070000D03*
X+6737000Y+1070000D03*
X+6356000Y+816000D03*
X+6737000Y+816000D03*
X+6356000Y+562000D03*
X+6737000Y+562000D03*
X+6356000Y+308000D03*
X+6737000Y+308000D03*
D73*
X+6004000Y+3500000D03*
X+5750000Y+3500000D03*
X+5496000Y+3500000D03*
X+5242000Y+3500000D03*
D30*
X+3750000Y+2996000D03*
X+3750000Y+2742000D03*
X+3750000Y+2488000D03*
X+3750000Y+2234000D03*
X+3750000Y+1980000D03*
X+3750000Y+1726000D03*
X+3750000Y+1472000D03*
X+3750000Y+1218000D03*
X+3750000Y+964000D03*
X+3750000Y+710000D03*
D31*
X+1250000Y+1500000D03*
X+1504000Y+1500000D03*
D73*
X+996000Y+3750000D03*
X+1250000Y+3750000D03*
X+1504000Y+3750000D03*
X+1758000Y+3750000D03*
X+1750000Y+3000000D03*
X+1496000Y+3000000D03*
X+1242000Y+3000000D03*
X+988000Y+3000000D03*
D31*
X+5500000Y+4508000D03*
X+5500000Y+4254000D03*
X+5500000Y+4000000D03*
X+3750000Y+250000D03*
X+3496000Y+250000D03*
X+2254000Y+500000D03*
X+2254000Y+754000D03*
X+5750000Y+500000D03*
X+5750000Y+754000D03*
X+5750000Y+1008000D03*
D35*
X+5670000Y+2740000D03*
X+5670000Y+2840000D03*
X+6000000Y+2750000D03*
X+6000000Y+2850000D03*
X+5250000Y+2750000D03*
X+5250000Y+2850000D03*
D36*
X+1320000Y+2000000D03*
X+1500000Y+2000000D03*
D37*
X+1750000Y+500000D03*
X+1750000Y+680000D03*
D36*
X+1070000Y+3410000D03*
X+1250000Y+3410000D03*
D37*
X+950000Y+4100000D03*
X+950000Y+4280000D03*
D38*
X+4770000Y+1320000D03*
X+4670000Y+1320000D03*
D36*
X+2900000Y+1110000D03*
X+3080000Y+1110000D03*
X+2910000Y+730000D03*
X+3090000Y+730000D03*
X+2840000Y+2720000D03*
X+2660000Y+2720000D03*
D37*
X+970000Y+2660000D03*
X+970000Y+2480000D03*
X+980000Y+2180000D03*
X+980000Y+2000000D03*
X+4070000Y+920000D03*
X+4070000Y+740000D03*
D36*
X+5470000Y+1340000D03*
X+5650000Y+1340000D03*
D31*
X+3440000Y+1450000D03*
X+2160000Y+2230000D03*
X+5410000Y+5070000D03*
X+6210000Y+5380000D03*
X+1120000Y+5620000D03*
X+440000Y+5600000D03*
D71*
X+0Y+0D02*
X+1650000Y+0D01*
X+7000000Y+0D02*
X+7000000Y+6000000D01*
X+5000000Y+6000000D01*
X+5000000Y+3700000D01*
X+4800000Y+3500000D01*
X+2200000Y+3500000D01*
X+2000000Y+3700000D02*
X+2000000Y+6000000D01*
X+0Y+6000000D01*
X+0Y+0D01*
X+2000000Y+3700000D02*
X+2200000Y+3500000D01*
X+5160000Y+0D02*
X+7000000Y+0D01*
X+1750000Y-200000D02*
X+5050000Y-200000D01*
X+1650000Y+0D02*
X+1750000Y-200000D01*
X+5160000Y+0D02*
X+5050000Y-200000D01*
X+4550045Y+50000D02*
X+4549508Y+63142D01*
X+4545144Y+89427D01*
X+4536029Y+115712D01*
X+4521182Y+141997D01*
X+4498470Y+168118D01*
X+4472185Y+187898D01*
X+4445900Y+200658D01*
X+4419615Y+208108D01*
X+4393330Y+210987D01*
X+4389000Y+211045D01*
X+4227955Y+50000D02*
X+4228492Y+63142D01*
X+4232856Y+89427D01*
X+4241971Y+115712D01*
X+4256818Y+141997D01*
X+4279530Y+168118D01*
X+4305815Y+187898D01*
X+4332100Y+200658D01*
X+4358385Y+208108D01*
X+4384670Y+210987D01*
X+4389000Y+211045D01*
X+4227955Y+50000D02*
X+4228492Y+36858D01*
X+4232856Y+10573D01*
X+4241971Y-15712D01*
X+4256818Y-41997D01*
X+4279530Y-68118D01*
X+4305815Y-87898D01*
X+4332100Y-100658D01*
X+4358385Y-108108D01*
X+4384670Y-110987D01*
X+4389000Y-111045D01*
X+4550045Y+50000D02*
X+4549508Y+36858D01*
X+4545144Y+10573D01*
X+4536029Y-15712D01*
X+4521182Y-41997D01*
X+4498470Y-68118D01*
X+4472185Y-87898D01*
X+4445900Y-100658D01*
X+4419615Y-108108D01*
X+4393330Y-110987D01*
X+4389000Y-111045D01*
X+6074045Y+5130000D02*
X+6073508Y+5143142D01*
X+6069144Y+5169427D01*
X+6060029Y+5195712D01*
X+6045182Y+5221997D01*
X+6022470Y+5248118D01*
X+5996185Y+5267898D01*
X+5969900Y+5280658D01*
X+5943615Y+5288108D01*
X+5917330Y+5290987D01*
X+5913000Y+5291045D01*
X+5751955Y+5130000D02*
X+5752492Y+5143142D01*
X+5756856Y+5169427D01*
X+5765971Y+5195712D01*
X+5780818Y+5221997D01*
X+5803530Y+5248118D01*
X+5829815Y+5267898D01*
X+5856100Y+5280658D01*
X+5882385Y+5288108D01*
X+5908670Y+5290987D01*
X+5913000Y+5291045D01*
X+5751955Y+5130000D02*
X+5752492Y+5116858D01*
X+5756856Y+5090573D01*
X+5765971Y+5064288D01*
X+5780818Y+5038003D01*
X+5803530Y+5011882D01*
X+5829815Y+4992102D01*
X+5856100Y+4979342D01*
X+5882385Y+4971892D01*
X+5908670Y+4969013D01*
X+5913000Y+4968955D01*
X+6074045Y+5130000D02*
X+6073508Y+5116858D01*
X+6069144Y+5090573D01*
X+6060029Y+5064288D01*
X+6045182Y+5038003D01*
X+6022470Y+5011882D01*
X+5996185Y+4992102D01*
X+5969900Y+4979342D01*
X+5943615Y+4971892D01*
X+5917330Y+4969013D01*
X+5913000Y+4968955D01*
X+1248045Y+5257000D02*
X+1247508Y+5270142D01*
X+1243144Y+5296427D01*
X+1234029Y+5322712D01*
X+1219182Y+5348997D01*
X+1196470Y+5375118D01*
X+1170185Y+5394898D01*
X+1143900Y+5407658D01*
X+1117615Y+5415108D01*
X+1091330Y+5417987D01*
X+1087000Y+5418045D01*
X+925955Y+5257000D02*
X+926492Y+5270142D01*
X+930856Y+5296427D01*
X+939971Y+5322712D01*
X+954818Y+5348997D01*
X+977530Y+5375118D01*
X+1003815Y+5394898D01*
X+1030100Y+5407658D01*
X+1056385Y+5415108D01*
X+1082670Y+5417987D01*
X+1087000Y+5418045D01*
X+925955Y+5257000D02*
X+926492Y+5243858D01*
X+930856Y+5217573D01*
X+939971Y+5191288D01*
X+954818Y+5165003D01*
X+977530Y+5138882D01*
X+1003815Y+5119102D01*
X+1030100Y+5106342D01*
X+1056385Y+5098892D01*
X+1082670Y+5096013D01*
X+1087000Y+5095955D01*
X+1248045Y+5257000D02*
X+1247508Y+5243858D01*
X+1243144Y+5217573D01*
X+1234029Y+5191288D01*
X+1219182Y+5165003D01*
X+1196470Y+5138882D01*
X+1170185Y+5119102D01*
X+1143900Y+5106342D01*
X+1117615Y+5098892D01*
X+1091330Y+5096013D01*
X+1087000Y+5095955D01*
M02*
