G04 PROTEUS GERBER X2 FILE*
%TF.GenerationSoftware,Labcenter,Proteus,8.12-SP2-Build31155*%
%TF.CreationDate,2024-12-03T23:36:33+00:00*%
%TF.FileFunction,Legend,Top*%
%TF.FilePolarity,Positive*%
%TF.Part,Single*%
%TF.SameCoordinates,{80aaee04-2193-4ab7-8769-78595995fdec}*%
%FSLAX45Y45*%
%MOMM*%
G01*
%TA.AperFunction,Profile*%
%ADD71C,0.203200*%
%TA.AperFunction,Material*%
%ADD25C,0.203200*%
%TD.AperFunction*%
D71*
X+0Y+0D02*
X+1650000Y+0D01*
X+7000000Y+0D02*
X+7000000Y+6000000D01*
X+5000000Y+6000000D01*
X+5000000Y+3700000D01*
X+4800000Y+3500000D01*
X+2200000Y+3500000D01*
X+2000000Y+3700000D02*
X+2000000Y+6000000D01*
X+0Y+6000000D01*
X+0Y+0D01*
X+2000000Y+3700000D02*
X+2200000Y+3500000D01*
X+5160000Y+0D02*
X+7000000Y+0D01*
X+1750000Y-200000D02*
X+5050000Y-200000D01*
X+1650000Y+0D02*
X+1750000Y-200000D01*
X+5160000Y+0D02*
X+5050000Y-200000D01*
X+4550045Y+50000D02*
X+4549508Y+63142D01*
X+4545144Y+89427D01*
X+4536029Y+115712D01*
X+4521182Y+141997D01*
X+4498470Y+168118D01*
X+4472185Y+187898D01*
X+4445900Y+200658D01*
X+4419615Y+208108D01*
X+4393330Y+210987D01*
X+4389000Y+211045D01*
X+4227955Y+50000D02*
X+4228492Y+63142D01*
X+4232856Y+89427D01*
X+4241971Y+115712D01*
X+4256818Y+141997D01*
X+4279530Y+168118D01*
X+4305815Y+187898D01*
X+4332100Y+200658D01*
X+4358385Y+208108D01*
X+4384670Y+210987D01*
X+4389000Y+211045D01*
X+4227955Y+50000D02*
X+4228492Y+36858D01*
X+4232856Y+10573D01*
X+4241971Y-15712D01*
X+4256818Y-41997D01*
X+4279530Y-68118D01*
X+4305815Y-87898D01*
X+4332100Y-100658D01*
X+4358385Y-108108D01*
X+4384670Y-110987D01*
X+4389000Y-111045D01*
X+4550045Y+50000D02*
X+4549508Y+36858D01*
X+4545144Y+10573D01*
X+4536029Y-15712D01*
X+4521182Y-41997D01*
X+4498470Y-68118D01*
X+4472185Y-87898D01*
X+4445900Y-100658D01*
X+4419615Y-108108D01*
X+4393330Y-110987D01*
X+4389000Y-111045D01*
X+6074045Y+5130000D02*
X+6073508Y+5143142D01*
X+6069144Y+5169427D01*
X+6060029Y+5195712D01*
X+6045182Y+5221997D01*
X+6022470Y+5248118D01*
X+5996185Y+5267898D01*
X+5969900Y+5280658D01*
X+5943615Y+5288108D01*
X+5917330Y+5290987D01*
X+5913000Y+5291045D01*
X+5751955Y+5130000D02*
X+5752492Y+5143142D01*
X+5756856Y+5169427D01*
X+5765971Y+5195712D01*
X+5780818Y+5221997D01*
X+5803530Y+5248118D01*
X+5829815Y+5267898D01*
X+5856100Y+5280658D01*
X+5882385Y+5288108D01*
X+5908670Y+5290987D01*
X+5913000Y+5291045D01*
X+5751955Y+5130000D02*
X+5752492Y+5116858D01*
X+5756856Y+5090573D01*
X+5765971Y+5064288D01*
X+5780818Y+5038003D01*
X+5803530Y+5011882D01*
X+5829815Y+4992102D01*
X+5856100Y+4979342D01*
X+5882385Y+4971892D01*
X+5908670Y+4969013D01*
X+5913000Y+4968955D01*
X+6074045Y+5130000D02*
X+6073508Y+5116858D01*
X+6069144Y+5090573D01*
X+6060029Y+5064288D01*
X+6045182Y+5038003D01*
X+6022470Y+5011882D01*
X+5996185Y+4992102D01*
X+5969900Y+4979342D01*
X+5943615Y+4971892D01*
X+5917330Y+4969013D01*
X+5913000Y+4968955D01*
X+1248045Y+5257000D02*
X+1247508Y+5270142D01*
X+1243144Y+5296427D01*
X+1234029Y+5322712D01*
X+1219182Y+5348997D01*
X+1196470Y+5375118D01*
X+1170185Y+5394898D01*
X+1143900Y+5407658D01*
X+1117615Y+5415108D01*
X+1091330Y+5417987D01*
X+1087000Y+5418045D01*
X+925955Y+5257000D02*
X+926492Y+5270142D01*
X+930856Y+5296427D01*
X+939971Y+5322712D01*
X+954818Y+5348997D01*
X+977530Y+5375118D01*
X+1003815Y+5394898D01*
X+1030100Y+5407658D01*
X+1056385Y+5415108D01*
X+1082670Y+5417987D01*
X+1087000Y+5418045D01*
X+925955Y+5257000D02*
X+926492Y+5243858D01*
X+930856Y+5217573D01*
X+939971Y+5191288D01*
X+954818Y+5165003D01*
X+977530Y+5138882D01*
X+1003815Y+5119102D01*
X+1030100Y+5106342D01*
X+1056385Y+5098892D01*
X+1082670Y+5096013D01*
X+1087000Y+5095955D01*
X+1248045Y+5257000D02*
X+1247508Y+5243858D01*
X+1243144Y+5217573D01*
X+1234029Y+5191288D01*
X+1219182Y+5165003D01*
X+1196470Y+5138882D01*
X+1170185Y+5119102D01*
X+1143900Y+5106342D01*
X+1117615Y+5098892D01*
X+1091330Y+5096013D01*
X+1087000Y+5095955D01*
D25*
X+5115000Y+3373000D02*
X+6131000Y+3373000D01*
X+6131000Y+3627000D01*
X+5115000Y+3627000D01*
X+5115000Y+3373000D01*
X+5496000Y+3271400D02*
X+5496000Y+3256160D01*
X+5511875Y+3240920D01*
X+5575375Y+3240920D01*
X+5591250Y+3256160D01*
X+5591250Y+3332360D01*
X+5638875Y+3317120D02*
X+5654750Y+3332360D01*
X+5702375Y+3332360D01*
X+5718250Y+3317120D01*
X+5718250Y+3301880D01*
X+5702375Y+3286640D01*
X+5654750Y+3286640D01*
X+5638875Y+3271400D01*
X+5638875Y+3240920D01*
X+5718250Y+3240920D01*
X+3623000Y+583000D02*
X+3877000Y+583000D01*
X+3877000Y+3123000D01*
X+3623000Y+3123000D01*
X+3623000Y+583000D01*
X+3978600Y+1726000D02*
X+3993840Y+1726000D01*
X+4009080Y+1741875D01*
X+4009080Y+1805375D01*
X+3993840Y+1821250D01*
X+3917640Y+1821250D01*
X+3932880Y+1868875D02*
X+3917640Y+1884750D01*
X+3917640Y+1932375D01*
X+3932880Y+1948250D01*
X+3948120Y+1948250D01*
X+3963360Y+1932375D01*
X+3978600Y+1948250D01*
X+3993840Y+1948250D01*
X+4009080Y+1932375D01*
X+4009080Y+1884750D01*
X+3993840Y+1868875D01*
X+3963360Y+1900625D02*
X+3963360Y+1932375D01*
X+996000Y+1246000D02*
X+1758000Y+1246000D01*
X+1758000Y+2643000D01*
X+996000Y+2643000D01*
X+996000Y+1246000D01*
X+996000Y+1754000D02*
X+1758000Y+1754000D01*
X+1885880Y+2060000D02*
X+1901120Y+2060000D01*
X+1916360Y+2075875D01*
X+1916360Y+2139375D01*
X+1901120Y+2155250D01*
X+1824920Y+2155250D01*
X+1885880Y+2282250D02*
X+1885880Y+2187000D01*
X+1824920Y+2250500D01*
X+1916360Y+2250500D01*
X+869000Y+3623000D02*
X+1885000Y+3623000D01*
X+1885000Y+3877000D01*
X+869000Y+3877000D01*
X+869000Y+3623000D01*
X+1640000Y+3488120D02*
X+1640000Y+3472880D01*
X+1655875Y+3457640D01*
X+1719375Y+3457640D01*
X+1735250Y+3472880D01*
X+1735250Y+3549080D01*
X+1862250Y+3533840D02*
X+1846375Y+3549080D01*
X+1798750Y+3549080D01*
X+1782875Y+3533840D01*
X+1782875Y+3472880D01*
X+1798750Y+3457640D01*
X+1846375Y+3457640D01*
X+1862250Y+3472880D01*
X+1862250Y+3488120D01*
X+1846375Y+3503360D01*
X+1782875Y+3503360D01*
X+861000Y+2873000D02*
X+1877000Y+2873000D01*
X+1877000Y+3127000D01*
X+861000Y+3127000D01*
X+861000Y+2873000D01*
X+2002198Y+2878402D02*
X+2017438Y+2878402D01*
X+2032678Y+2894277D01*
X+2032678Y+2957777D01*
X+2017438Y+2973652D01*
X+1941238Y+2973652D01*
X+1986958Y+3037152D02*
X+1971718Y+3021277D01*
X+1956478Y+3021277D01*
X+1941238Y+3037152D01*
X+1941238Y+3084777D01*
X+1956478Y+3100652D01*
X+1971718Y+3100652D01*
X+1986958Y+3084777D01*
X+1986958Y+3037152D01*
X+2002198Y+3021277D01*
X+2017438Y+3021277D01*
X+2032678Y+3037152D01*
X+2032678Y+3084777D01*
X+2017438Y+3100652D01*
X+2002198Y+3100652D01*
X+1986958Y+3084777D01*
X+5246000Y+3746000D02*
X+5881000Y+3746000D01*
X+5881000Y+4762000D01*
X+5246000Y+4762000D01*
X+5246000Y+3746000D01*
X+5754000Y+4762000D02*
X+5754000Y+3746000D01*
X+5982600Y+4127000D02*
X+5997840Y+4127000D01*
X+6013080Y+4142875D01*
X+6013080Y+4206375D01*
X+5997840Y+4222250D01*
X+5921640Y+4222250D01*
X+5952120Y+4349250D02*
X+5967360Y+4333375D01*
X+5967360Y+4285750D01*
X+5952120Y+4269875D01*
X+5936880Y+4269875D01*
X+5921640Y+4285750D01*
X+5921640Y+4333375D01*
X+5936880Y+4349250D01*
X+5997840Y+4349250D01*
X+6013080Y+4333375D01*
X+6013080Y+4285750D01*
X+3242000Y-131000D02*
X+4004000Y-131000D01*
X+4004000Y+504000D01*
X+3242000Y+504000D01*
X+3242000Y-131000D01*
X+4004000Y-4000D02*
X+3242000Y-4000D01*
X+2982600Y-4000D02*
X+2997840Y-4000D01*
X+3013080Y+11875D01*
X+3013080Y+75375D01*
X+2997840Y+91250D01*
X+2921640Y+91250D01*
X+2921640Y+138875D02*
X+2921640Y+218250D01*
X+2936880Y+218250D01*
X+3013080Y+138875D01*
X+1111000Y+246000D02*
X+2508000Y+246000D01*
X+2508000Y+1008000D01*
X+1111000Y+1008000D01*
X+1111000Y+246000D01*
X+2000000Y+246000D02*
X+2000000Y+1008000D01*
X+1039880Y+436500D02*
X+1055120Y+436500D01*
X+1070360Y+452375D01*
X+1070360Y+515875D01*
X+1055120Y+531750D01*
X+978920Y+531750D01*
X+1009400Y+595250D02*
X+978920Y+627000D01*
X+1070360Y+627000D01*
X+978920Y+785750D02*
X+978920Y+706375D01*
X+1009400Y+706375D01*
X+1009400Y+769875D01*
X+1024640Y+785750D01*
X+1055120Y+785750D01*
X+1070360Y+769875D01*
X+1070360Y+722250D01*
X+1055120Y+706375D01*
X+5304800Y+1895480D02*
X+5076200Y+1895480D01*
X+5070321Y+1925469D01*
X+5054173Y+1949654D01*
X+5029989Y+1965801D01*
X+5000000Y+1971680D01*
X+4923800Y+1895480D02*
X+4929679Y+1925469D01*
X+4945827Y+1949654D01*
X+4970011Y+1965801D01*
X+5000000Y+1971680D01*
X+4923800Y+1895480D02*
X+4695200Y+1895480D01*
X+5228600Y+3104520D02*
X+4771400Y+3104520D01*
X+5304800Y+1928500D02*
X+5304800Y+3071500D01*
X+4695200Y+1928500D02*
X+4695200Y+3071500D01*
X+5304800Y+1928500D02*
X+5304800Y+1895480D01*
X+4695200Y+1895480D02*
X+4695200Y+1928500D01*
X+4771400Y+3104520D02*
X+4695200Y+3104520D01*
X+4695200Y+3071500D01*
X+5304800Y+3071500D02*
X+5304800Y+3104520D01*
X+5228600Y+3104520D01*
X+5279400Y+1944756D02*
X+5279365Y+1945601D01*
X+5279078Y+1947292D01*
X+5278479Y+1948983D01*
X+5277499Y+1950674D01*
X+5275999Y+1952342D01*
X+5274308Y+1953562D01*
X+5272617Y+1954338D01*
X+5270926Y+1954775D01*
X+5269240Y+1954916D01*
X+5259080Y+1944756D02*
X+5259115Y+1945601D01*
X+5259402Y+1947292D01*
X+5260001Y+1948983D01*
X+5260981Y+1950674D01*
X+5262481Y+1952342D01*
X+5264172Y+1953562D01*
X+5265863Y+1954338D01*
X+5267554Y+1954775D01*
X+5269240Y+1954916D01*
X+5259080Y+1944756D02*
X+5259115Y+1943911D01*
X+5259402Y+1942220D01*
X+5260001Y+1940529D01*
X+5260981Y+1938838D01*
X+5262481Y+1937170D01*
X+5264172Y+1935950D01*
X+5265863Y+1935174D01*
X+5267554Y+1934737D01*
X+5269240Y+1934596D01*
X+5279400Y+1944756D02*
X+5279365Y+1943911D01*
X+5279078Y+1942220D01*
X+5278479Y+1940529D01*
X+5277499Y+1938838D01*
X+5275999Y+1937170D01*
X+5274308Y+1935950D01*
X+5272617Y+1935174D01*
X+5270926Y+1934737D01*
X+5269240Y+1934596D01*
X+4743000Y+3259420D02*
X+4743000Y+3183220D01*
X+4758875Y+3167980D01*
X+4822375Y+3167980D01*
X+4838250Y+3183220D01*
X+4838250Y+3259420D01*
X+4901750Y+3228940D02*
X+4933500Y+3259420D01*
X+4933500Y+3167980D01*
X+1392050Y+4977520D02*
X+1473012Y+4977520D01*
X+1475094Y+4966899D01*
X+1480814Y+4958333D01*
X+1489379Y+4952614D01*
X+1500000Y+4950532D01*
X+1526988Y+4977520D02*
X+1524906Y+4966899D01*
X+1519186Y+4958333D01*
X+1510621Y+4952614D01*
X+1500000Y+4950532D01*
X+1526988Y+4977520D02*
X+1607950Y+4977520D01*
X+1468250Y+4022480D02*
X+1531750Y+4022480D01*
X+1392050Y+4944500D02*
X+1392050Y+4055500D01*
X+1607950Y+4944500D02*
X+1607950Y+4055500D01*
X+1392050Y+4944500D02*
X+1392050Y+4977520D01*
X+1607950Y+4977520D02*
X+1607950Y+4944500D01*
X+1531750Y+4022480D02*
X+1607950Y+4022480D01*
X+1607950Y+4055500D01*
X+1392050Y+4055500D02*
X+1392050Y+4022480D01*
X+1468250Y+4022480D01*
X+1437770Y+4928244D02*
X+1437735Y+4929089D01*
X+1437448Y+4930780D01*
X+1436849Y+4932471D01*
X+1435869Y+4934162D01*
X+1434369Y+4935830D01*
X+1432678Y+4937050D01*
X+1430987Y+4937826D01*
X+1429296Y+4938263D01*
X+1427610Y+4938404D01*
X+1417450Y+4928244D02*
X+1417485Y+4929089D01*
X+1417772Y+4930780D01*
X+1418371Y+4932471D01*
X+1419351Y+4934162D01*
X+1420851Y+4935830D01*
X+1422542Y+4937050D01*
X+1424233Y+4937826D01*
X+1425924Y+4938263D01*
X+1427610Y+4938404D01*
X+1417450Y+4928244D02*
X+1417485Y+4927399D01*
X+1417772Y+4925708D01*
X+1418371Y+4924017D01*
X+1419351Y+4922326D01*
X+1420851Y+4920658D01*
X+1422542Y+4919438D01*
X+1424233Y+4918662D01*
X+1425924Y+4918225D01*
X+1427610Y+4918084D01*
X+1437770Y+4928244D02*
X+1437735Y+4927399D01*
X+1437448Y+4925708D01*
X+1436849Y+4924017D01*
X+1435869Y+4922326D01*
X+1434369Y+4920658D01*
X+1432678Y+4919438D01*
X+1430987Y+4918662D01*
X+1429296Y+4918225D01*
X+1427610Y+4918084D01*
X+1373000Y+5165020D02*
X+1373000Y+5088820D01*
X+1388875Y+5073580D01*
X+1452375Y+5073580D01*
X+1468250Y+5088820D01*
X+1468250Y+5165020D01*
X+1515875Y+5149780D02*
X+1531750Y+5165020D01*
X+1579375Y+5165020D01*
X+1595250Y+5149780D01*
X+1595250Y+5134540D01*
X+1579375Y+5119300D01*
X+1531750Y+5119300D01*
X+1515875Y+5104060D01*
X+1515875Y+5073580D01*
X+1595250Y+5073580D01*
X+2892050Y+1223520D02*
X+2973012Y+1223520D01*
X+2975094Y+1212899D01*
X+2980814Y+1204333D01*
X+2989379Y+1198614D01*
X+3000000Y+1196532D01*
X+3026988Y+1223520D02*
X+3024906Y+1212899D01*
X+3019186Y+1204333D01*
X+3010621Y+1198614D01*
X+3000000Y+1196532D01*
X+3026988Y+1223520D02*
X+3107950Y+1223520D01*
X+2968250Y+776480D02*
X+3031750Y+776480D01*
X+2892050Y+1190500D02*
X+2892050Y+809500D01*
X+3107950Y+1190500D02*
X+3107950Y+809500D01*
X+2892050Y+1190500D02*
X+2892050Y+1223520D01*
X+3107950Y+1223520D02*
X+3107950Y+1190500D01*
X+3031750Y+776480D02*
X+3107950Y+776480D01*
X+3107950Y+809500D01*
X+2892050Y+809500D02*
X+2892050Y+776480D01*
X+2968250Y+776480D01*
X+2937770Y+1174244D02*
X+2937735Y+1175089D01*
X+2937448Y+1176780D01*
X+2936849Y+1178471D01*
X+2935869Y+1180162D01*
X+2934369Y+1181830D01*
X+2932678Y+1183050D01*
X+2930987Y+1183826D01*
X+2929296Y+1184263D01*
X+2927610Y+1184404D01*
X+2917450Y+1174244D02*
X+2917485Y+1175089D01*
X+2917772Y+1176780D01*
X+2918371Y+1178471D01*
X+2919351Y+1180162D01*
X+2920851Y+1181830D01*
X+2922542Y+1183050D01*
X+2924233Y+1183826D01*
X+2925924Y+1184263D01*
X+2927610Y+1184404D01*
X+2917450Y+1174244D02*
X+2917485Y+1173399D01*
X+2917772Y+1171708D01*
X+2918371Y+1170017D01*
X+2919351Y+1168326D01*
X+2920851Y+1166658D01*
X+2922542Y+1165438D01*
X+2924233Y+1164662D01*
X+2925924Y+1164225D01*
X+2927610Y+1164084D01*
X+2937770Y+1174244D02*
X+2937735Y+1173399D01*
X+2937448Y+1171708D01*
X+2936849Y+1170017D01*
X+2935869Y+1168326D01*
X+2934369Y+1166658D01*
X+2932678Y+1165438D01*
X+2930987Y+1164662D01*
X+2929296Y+1164225D01*
X+2927610Y+1164084D01*
X+2815850Y+614870D02*
X+2815850Y+538670D01*
X+2831725Y+523430D01*
X+2895225Y+523430D01*
X+2911100Y+538670D01*
X+2911100Y+614870D01*
X+2958725Y+599630D02*
X+2974600Y+614870D01*
X+3022225Y+614870D01*
X+3038100Y+599630D01*
X+3038100Y+584390D01*
X+3022225Y+569150D01*
X+3038100Y+553910D01*
X+3038100Y+538670D01*
X+3022225Y+523430D01*
X+2974600Y+523430D01*
X+2958725Y+538670D01*
X+2990475Y+569150D02*
X+3022225Y+569150D01*
X+3217170Y+1794450D02*
X+3217170Y+1713488D01*
X+3206549Y+1711406D01*
X+3197983Y+1705686D01*
X+3192264Y+1697121D01*
X+3190182Y+1686500D01*
X+3217170Y+1659512D02*
X+3206549Y+1661594D01*
X+3197983Y+1667314D01*
X+3192264Y+1675879D01*
X+3190182Y+1686500D01*
X+3217170Y+1659512D02*
X+3217170Y+1578550D01*
X+2262130Y+1718250D02*
X+2262130Y+1654750D01*
X+3184150Y+1794450D02*
X+2295150Y+1794450D01*
X+3184150Y+1578550D02*
X+2295150Y+1578550D01*
X+3184150Y+1794450D02*
X+3217170Y+1794450D01*
X+3217170Y+1578550D02*
X+3184150Y+1578550D01*
X+2262130Y+1654750D02*
X+2262130Y+1578550D01*
X+2295150Y+1578550D01*
X+2295150Y+1794450D02*
X+2262130Y+1794450D01*
X+2262130Y+1718250D01*
X+3178054Y+1758890D02*
X+3178019Y+1759735D01*
X+3177732Y+1761426D01*
X+3177133Y+1763117D01*
X+3176153Y+1764808D01*
X+3174653Y+1766476D01*
X+3172962Y+1767696D01*
X+3171271Y+1768472D01*
X+3169580Y+1768909D01*
X+3167894Y+1769050D01*
X+3157734Y+1758890D02*
X+3157769Y+1759735D01*
X+3158056Y+1761426D01*
X+3158655Y+1763117D01*
X+3159635Y+1764808D01*
X+3161135Y+1766476D01*
X+3162826Y+1767696D01*
X+3164517Y+1768472D01*
X+3166208Y+1768909D01*
X+3167894Y+1769050D01*
X+3157734Y+1758890D02*
X+3157769Y+1758045D01*
X+3158056Y+1756354D01*
X+3158655Y+1754663D01*
X+3159635Y+1752972D01*
X+3161135Y+1751304D01*
X+3162826Y+1750084D01*
X+3164517Y+1749308D01*
X+3166208Y+1748871D01*
X+3167894Y+1748730D01*
X+3178054Y+1758890D02*
X+3178019Y+1758045D01*
X+3177732Y+1756354D01*
X+3177133Y+1754663D01*
X+3176153Y+1752972D01*
X+3174653Y+1751304D01*
X+3172962Y+1750084D01*
X+3171271Y+1749308D01*
X+3169580Y+1748871D01*
X+3167894Y+1748730D01*
X+2123230Y+1569500D02*
X+2199430Y+1569500D01*
X+2214670Y+1585375D01*
X+2214670Y+1648875D01*
X+2199430Y+1664750D01*
X+2123230Y+1664750D01*
X+2184190Y+1791750D02*
X+2184190Y+1696500D01*
X+2123230Y+1760000D01*
X+2214670Y+1760000D01*
X+4402400Y+1537020D02*
X+4631000Y+1537020D01*
X+4636879Y+1507031D01*
X+4653027Y+1482846D01*
X+4677211Y+1466699D01*
X+4707200Y+1460820D01*
X+4783400Y+1537020D02*
X+4777521Y+1507031D01*
X+4761373Y+1482846D01*
X+4737189Y+1466699D01*
X+4707200Y+1460820D01*
X+4783400Y+1537020D02*
X+5012000Y+1537020D01*
X+4478600Y+327980D02*
X+4935800Y+327980D01*
X+4402400Y+1504000D02*
X+4402400Y+361000D01*
X+5012000Y+1504000D02*
X+5012000Y+361000D01*
X+4402400Y+1504000D02*
X+4402400Y+1537020D01*
X+5012000Y+1537020D02*
X+5012000Y+1504000D01*
X+4935800Y+327980D02*
X+5012000Y+327980D01*
X+5012000Y+361000D01*
X+4402400Y+361000D02*
X+4402400Y+327980D01*
X+4478600Y+327980D01*
X+4448120Y+1487744D02*
X+4448085Y+1488589D01*
X+4447798Y+1490280D01*
X+4447199Y+1491971D01*
X+4446219Y+1493662D01*
X+4444719Y+1495330D01*
X+4443028Y+1496550D01*
X+4441337Y+1497326D01*
X+4439646Y+1497763D01*
X+4437960Y+1497904D01*
X+4427800Y+1487744D02*
X+4427835Y+1488589D01*
X+4428122Y+1490280D01*
X+4428721Y+1491971D01*
X+4429701Y+1493662D01*
X+4431201Y+1495330D01*
X+4432892Y+1496550D01*
X+4434583Y+1497326D01*
X+4436274Y+1497763D01*
X+4437960Y+1497904D01*
X+4427800Y+1487744D02*
X+4427835Y+1486899D01*
X+4428122Y+1485208D01*
X+4428721Y+1483517D01*
X+4429701Y+1481826D01*
X+4431201Y+1480158D01*
X+4432892Y+1478938D01*
X+4434583Y+1478162D01*
X+4436274Y+1477725D01*
X+4437960Y+1477584D01*
X+4448120Y+1487744D02*
X+4448085Y+1486899D01*
X+4447798Y+1485208D01*
X+4447199Y+1483517D01*
X+4446219Y+1481826D01*
X+4444719Y+1480158D01*
X+4443028Y+1478938D01*
X+4441337Y+1478162D01*
X+4439646Y+1477725D01*
X+4437960Y+1477584D01*
X+4780200Y+264520D02*
X+4780200Y+188320D01*
X+4796075Y+173080D01*
X+4859575Y+173080D01*
X+4875450Y+188320D01*
X+4875450Y+264520D01*
X+5002450Y+264520D02*
X+4923075Y+264520D01*
X+4923075Y+234040D01*
X+4986575Y+234040D01*
X+5002450Y+218800D01*
X+5002450Y+188320D01*
X+4986575Y+173080D01*
X+4938950Y+173080D01*
X+4923075Y+188320D01*
X+5369000Y+246000D02*
X+6004000Y+246000D01*
X+6004000Y+1262000D01*
X+5369000Y+1262000D01*
X+5369000Y+246000D01*
X+5496000Y+246000D02*
X+5496000Y+1262000D01*
X+5619000Y+1517400D02*
X+5619000Y+1502160D01*
X+5634875Y+1486920D01*
X+5698375Y+1486920D01*
X+5714250Y+1502160D01*
X+5714250Y+1578360D01*
X+5777750Y+1547880D02*
X+5809500Y+1578360D01*
X+5809500Y+1486920D01*
X+2369000Y+2369000D02*
X+2330900Y+2369000D01*
X+2330900Y+3131000D01*
X+2648400Y+3131000D01*
X+2851600Y+3131000D02*
X+3169100Y+3131000D01*
X+3169100Y+2369000D01*
X+3131000Y+2369000D01*
X+2597600Y+2356300D02*
X+2623000Y+2356300D01*
X+2623000Y+2381700D01*
X+2877000Y+2381700D01*
X+2877000Y+2356300D01*
X+2902400Y+2356300D01*
X+2559500Y+3171640D02*
X+2559500Y+3263080D01*
X+2638875Y+3263080D01*
X+2654750Y+3247840D01*
X+2654750Y+3232600D01*
X+2638875Y+3217360D01*
X+2559500Y+3217360D01*
X+2638875Y+3217360D02*
X+2654750Y+3202120D01*
X+2654750Y+3171640D01*
X+2686500Y+3263080D02*
X+2686500Y+3217360D01*
X+2734125Y+3171640D01*
X+2781750Y+3217360D01*
X+2781750Y+3263080D01*
X+2845250Y+3232600D02*
X+2877000Y+3263080D01*
X+2877000Y+3171640D01*
X+3567000Y+1450000D02*
X+3566573Y+1460409D01*
X+3563101Y+1481228D01*
X+3555845Y+1502047D01*
X+3544017Y+1522866D01*
X+3525920Y+1543524D01*
X+3505101Y+1559045D01*
X+3484282Y+1569030D01*
X+3463463Y+1574814D01*
X+3442644Y+1576972D01*
X+3440000Y+1577000D01*
X+3313000Y+1450000D02*
X+3313427Y+1460409D01*
X+3316899Y+1481228D01*
X+3324155Y+1502047D01*
X+3335983Y+1522866D01*
X+3354080Y+1543524D01*
X+3374899Y+1559045D01*
X+3395718Y+1569030D01*
X+3416537Y+1574814D01*
X+3437356Y+1576972D01*
X+3440000Y+1577000D01*
X+3313000Y+1450000D02*
X+3313427Y+1439591D01*
X+3316899Y+1418772D01*
X+3324155Y+1397953D01*
X+3335983Y+1377134D01*
X+3354080Y+1356476D01*
X+3374899Y+1340955D01*
X+3395718Y+1330970D01*
X+3416537Y+1325186D01*
X+3437356Y+1323028D01*
X+3440000Y+1323000D01*
X+3567000Y+1450000D02*
X+3566573Y+1439591D01*
X+3563101Y+1418772D01*
X+3555845Y+1397953D01*
X+3544017Y+1377134D01*
X+3525920Y+1356476D01*
X+3505101Y+1340955D01*
X+3484282Y+1330970D01*
X+3463463Y+1325186D01*
X+3442644Y+1323028D01*
X+3440000Y+1323000D01*
X+3503500Y+1450000D02*
X+3503283Y+1455247D01*
X+3501518Y+1465742D01*
X+3497826Y+1476237D01*
X+3491798Y+1486732D01*
X+3482576Y+1497112D01*
X+3472081Y+1504800D01*
X+3461586Y+1509718D01*
X+3451091Y+1512524D01*
X+3440596Y+1513497D01*
X+3440000Y+1513500D01*
X+3376500Y+1450000D02*
X+3376717Y+1455247D01*
X+3378482Y+1465742D01*
X+3382174Y+1476237D01*
X+3388202Y+1486732D01*
X+3397424Y+1497112D01*
X+3407919Y+1504800D01*
X+3418414Y+1509718D01*
X+3428909Y+1512524D01*
X+3439404Y+1513497D01*
X+3440000Y+1513500D01*
X+3376500Y+1450000D02*
X+3376717Y+1444753D01*
X+3378482Y+1434258D01*
X+3382174Y+1423763D01*
X+3388202Y+1413268D01*
X+3397424Y+1402888D01*
X+3407919Y+1395200D01*
X+3418414Y+1390282D01*
X+3428909Y+1387476D01*
X+3439404Y+1386503D01*
X+3440000Y+1386500D01*
X+3503500Y+1450000D02*
X+3503283Y+1444753D01*
X+3501518Y+1434258D01*
X+3497826Y+1423763D01*
X+3491798Y+1413268D01*
X+3482576Y+1402888D01*
X+3472081Y+1395200D01*
X+3461586Y+1390282D01*
X+3451091Y+1387476D01*
X+3440596Y+1386503D01*
X+3440000Y+1386500D01*
X+3313000Y+1648120D02*
X+3313000Y+1632880D01*
X+3328875Y+1617640D01*
X+3392375Y+1617640D01*
X+3408250Y+1632880D01*
X+3408250Y+1709080D01*
X+3535250Y+1709080D02*
X+3455875Y+1709080D01*
X+3455875Y+1678600D01*
X+3519375Y+1678600D01*
X+3535250Y+1663360D01*
X+3535250Y+1632880D01*
X+3519375Y+1617640D01*
X+3471750Y+1617640D01*
X+3455875Y+1632880D01*
X+2287000Y+2230000D02*
X+2286573Y+2240409D01*
X+2283101Y+2261228D01*
X+2275845Y+2282047D01*
X+2264017Y+2302866D01*
X+2245920Y+2323524D01*
X+2225101Y+2339045D01*
X+2204282Y+2349030D01*
X+2183463Y+2354814D01*
X+2162644Y+2356972D01*
X+2160000Y+2357000D01*
X+2033000Y+2230000D02*
X+2033427Y+2240409D01*
X+2036899Y+2261228D01*
X+2044155Y+2282047D01*
X+2055983Y+2302866D01*
X+2074080Y+2323524D01*
X+2094899Y+2339045D01*
X+2115718Y+2349030D01*
X+2136537Y+2354814D01*
X+2157356Y+2356972D01*
X+2160000Y+2357000D01*
X+2033000Y+2230000D02*
X+2033427Y+2219591D01*
X+2036899Y+2198772D01*
X+2044155Y+2177953D01*
X+2055983Y+2157134D01*
X+2074080Y+2136476D01*
X+2094899Y+2120955D01*
X+2115718Y+2110970D01*
X+2136537Y+2105186D01*
X+2157356Y+2103028D01*
X+2160000Y+2103000D01*
X+2287000Y+2230000D02*
X+2286573Y+2219591D01*
X+2283101Y+2198772D01*
X+2275845Y+2177953D01*
X+2264017Y+2157134D01*
X+2245920Y+2136476D01*
X+2225101Y+2120955D01*
X+2204282Y+2110970D01*
X+2183463Y+2105186D01*
X+2162644Y+2103028D01*
X+2160000Y+2103000D01*
X+2223500Y+2230000D02*
X+2223283Y+2235247D01*
X+2221518Y+2245742D01*
X+2217826Y+2256237D01*
X+2211798Y+2266732D01*
X+2202576Y+2277112D01*
X+2192081Y+2284800D01*
X+2181586Y+2289718D01*
X+2171091Y+2292524D01*
X+2160596Y+2293497D01*
X+2160000Y+2293500D01*
X+2096500Y+2230000D02*
X+2096717Y+2235247D01*
X+2098482Y+2245742D01*
X+2102174Y+2256237D01*
X+2108202Y+2266732D01*
X+2117424Y+2277112D01*
X+2127919Y+2284800D01*
X+2138414Y+2289718D01*
X+2148909Y+2292524D01*
X+2159404Y+2293497D01*
X+2160000Y+2293500D01*
X+2096500Y+2230000D02*
X+2096717Y+2224753D01*
X+2098482Y+2214258D01*
X+2102174Y+2203763D01*
X+2108202Y+2193268D01*
X+2117424Y+2182888D01*
X+2127919Y+2175200D01*
X+2138414Y+2170282D01*
X+2148909Y+2167476D01*
X+2159404Y+2166503D01*
X+2160000Y+2166500D01*
X+2223500Y+2230000D02*
X+2223283Y+2224753D01*
X+2221518Y+2214258D01*
X+2217826Y+2203763D01*
X+2211798Y+2193268D01*
X+2202576Y+2182888D01*
X+2192081Y+2175200D01*
X+2181586Y+2170282D01*
X+2171091Y+2167476D01*
X+2160596Y+2166503D01*
X+2160000Y+2166500D01*
X+1969500Y+2428120D02*
X+1969500Y+2412880D01*
X+1985375Y+2397640D01*
X+2048875Y+2397640D01*
X+2064750Y+2412880D01*
X+2064750Y+2489080D01*
X+2128250Y+2458600D02*
X+2160000Y+2489080D01*
X+2160000Y+2397640D01*
X+2255250Y+2458600D02*
X+2287000Y+2489080D01*
X+2287000Y+2397640D01*
X+5537000Y+5070000D02*
X+5536573Y+5080409D01*
X+5533101Y+5101228D01*
X+5525845Y+5122047D01*
X+5514017Y+5142866D01*
X+5495920Y+5163524D01*
X+5475101Y+5179045D01*
X+5454282Y+5189030D01*
X+5433463Y+5194814D01*
X+5412644Y+5196972D01*
X+5410000Y+5197000D01*
X+5283000Y+5070000D02*
X+5283427Y+5080409D01*
X+5286899Y+5101228D01*
X+5294155Y+5122047D01*
X+5305983Y+5142866D01*
X+5324080Y+5163524D01*
X+5344899Y+5179045D01*
X+5365718Y+5189030D01*
X+5386537Y+5194814D01*
X+5407356Y+5196972D01*
X+5410000Y+5197000D01*
X+5283000Y+5070000D02*
X+5283427Y+5059591D01*
X+5286899Y+5038772D01*
X+5294155Y+5017953D01*
X+5305983Y+4997134D01*
X+5324080Y+4976476D01*
X+5344899Y+4960955D01*
X+5365718Y+4950970D01*
X+5386537Y+4945186D01*
X+5407356Y+4943028D01*
X+5410000Y+4943000D01*
X+5537000Y+5070000D02*
X+5536573Y+5059591D01*
X+5533101Y+5038772D01*
X+5525845Y+5017953D01*
X+5514017Y+4997134D01*
X+5495920Y+4976476D01*
X+5475101Y+4960955D01*
X+5454282Y+4950970D01*
X+5433463Y+4945186D01*
X+5412644Y+4943028D01*
X+5410000Y+4943000D01*
X+5473500Y+5070000D02*
X+5473283Y+5075247D01*
X+5471518Y+5085742D01*
X+5467826Y+5096237D01*
X+5461798Y+5106732D01*
X+5452576Y+5117112D01*
X+5442081Y+5124800D01*
X+5431586Y+5129718D01*
X+5421091Y+5132524D01*
X+5410596Y+5133497D01*
X+5410000Y+5133500D01*
X+5346500Y+5070000D02*
X+5346717Y+5075247D01*
X+5348482Y+5085742D01*
X+5352174Y+5096237D01*
X+5358202Y+5106732D01*
X+5367424Y+5117112D01*
X+5377919Y+5124800D01*
X+5388414Y+5129718D01*
X+5398909Y+5132524D01*
X+5409404Y+5133497D01*
X+5410000Y+5133500D01*
X+5346500Y+5070000D02*
X+5346717Y+5064753D01*
X+5348482Y+5054258D01*
X+5352174Y+5043763D01*
X+5358202Y+5033268D01*
X+5367424Y+5022888D01*
X+5377919Y+5015200D01*
X+5388414Y+5010282D01*
X+5398909Y+5007476D01*
X+5409404Y+5006503D01*
X+5410000Y+5006500D01*
X+5473500Y+5070000D02*
X+5473283Y+5064753D01*
X+5471518Y+5054258D01*
X+5467826Y+5043763D01*
X+5461798Y+5033268D01*
X+5452576Y+5022888D01*
X+5442081Y+5015200D01*
X+5431586Y+5010282D01*
X+5421091Y+5007476D01*
X+5410596Y+5006503D01*
X+5410000Y+5006500D01*
X+5219500Y+5268120D02*
X+5219500Y+5252880D01*
X+5235375Y+5237640D01*
X+5298875Y+5237640D01*
X+5314750Y+5252880D01*
X+5314750Y+5329080D01*
X+5378250Y+5298600D02*
X+5410000Y+5329080D01*
X+5410000Y+5237640D01*
X+5489375Y+5313840D02*
X+5505250Y+5329080D01*
X+5552875Y+5329080D01*
X+5568750Y+5313840D01*
X+5568750Y+5298600D01*
X+5552875Y+5283360D01*
X+5568750Y+5268120D01*
X+5568750Y+5252880D01*
X+5552875Y+5237640D01*
X+5505250Y+5237640D01*
X+5489375Y+5252880D01*
X+5521125Y+5283360D02*
X+5552875Y+5283360D01*
X+6337000Y+5380000D02*
X+6336573Y+5390409D01*
X+6333101Y+5411228D01*
X+6325845Y+5432047D01*
X+6314017Y+5452866D01*
X+6295920Y+5473524D01*
X+6275101Y+5489045D01*
X+6254282Y+5499030D01*
X+6233463Y+5504814D01*
X+6212644Y+5506972D01*
X+6210000Y+5507000D01*
X+6083000Y+5380000D02*
X+6083427Y+5390409D01*
X+6086899Y+5411228D01*
X+6094155Y+5432047D01*
X+6105983Y+5452866D01*
X+6124080Y+5473524D01*
X+6144899Y+5489045D01*
X+6165718Y+5499030D01*
X+6186537Y+5504814D01*
X+6207356Y+5506972D01*
X+6210000Y+5507000D01*
X+6083000Y+5380000D02*
X+6083427Y+5369591D01*
X+6086899Y+5348772D01*
X+6094155Y+5327953D01*
X+6105983Y+5307134D01*
X+6124080Y+5286476D01*
X+6144899Y+5270955D01*
X+6165718Y+5260970D01*
X+6186537Y+5255186D01*
X+6207356Y+5253028D01*
X+6210000Y+5253000D01*
X+6337000Y+5380000D02*
X+6336573Y+5369591D01*
X+6333101Y+5348772D01*
X+6325845Y+5327953D01*
X+6314017Y+5307134D01*
X+6295920Y+5286476D01*
X+6275101Y+5270955D01*
X+6254282Y+5260970D01*
X+6233463Y+5255186D01*
X+6212644Y+5253028D01*
X+6210000Y+5253000D01*
X+6273500Y+5380000D02*
X+6273283Y+5385247D01*
X+6271518Y+5395742D01*
X+6267826Y+5406237D01*
X+6261798Y+5416732D01*
X+6252576Y+5427112D01*
X+6242081Y+5434800D01*
X+6231586Y+5439718D01*
X+6221091Y+5442524D01*
X+6210596Y+5443497D01*
X+6210000Y+5443500D01*
X+6146500Y+5380000D02*
X+6146717Y+5385247D01*
X+6148482Y+5395742D01*
X+6152174Y+5406237D01*
X+6158202Y+5416732D01*
X+6167424Y+5427112D01*
X+6177919Y+5434800D01*
X+6188414Y+5439718D01*
X+6198909Y+5442524D01*
X+6209404Y+5443497D01*
X+6210000Y+5443500D01*
X+6146500Y+5380000D02*
X+6146717Y+5374753D01*
X+6148482Y+5364258D01*
X+6152174Y+5353763D01*
X+6158202Y+5343268D01*
X+6167424Y+5332888D01*
X+6177919Y+5325200D01*
X+6188414Y+5320282D01*
X+6198909Y+5317476D01*
X+6209404Y+5316503D01*
X+6210000Y+5316500D01*
X+6273500Y+5380000D02*
X+6273283Y+5374753D01*
X+6271518Y+5364258D01*
X+6267826Y+5353763D01*
X+6261798Y+5343268D01*
X+6252576Y+5332888D01*
X+6242081Y+5325200D01*
X+6231586Y+5320282D01*
X+6221091Y+5317476D01*
X+6210596Y+5316503D01*
X+6210000Y+5316500D01*
X+6019500Y+5578120D02*
X+6019500Y+5562880D01*
X+6035375Y+5547640D01*
X+6098875Y+5547640D01*
X+6114750Y+5562880D01*
X+6114750Y+5639080D01*
X+6178250Y+5608600D02*
X+6210000Y+5639080D01*
X+6210000Y+5547640D01*
X+6273500Y+5562880D02*
X+6273500Y+5623840D01*
X+6289375Y+5639080D01*
X+6352875Y+5639080D01*
X+6368750Y+5623840D01*
X+6368750Y+5562880D01*
X+6352875Y+5547640D01*
X+6289375Y+5547640D01*
X+6273500Y+5562880D01*
X+6273500Y+5547640D02*
X+6368750Y+5639080D01*
X+1247000Y+5620000D02*
X+1246573Y+5630409D01*
X+1243101Y+5651228D01*
X+1235845Y+5672047D01*
X+1224017Y+5692866D01*
X+1205920Y+5713524D01*
X+1185101Y+5729045D01*
X+1164282Y+5739030D01*
X+1143463Y+5744814D01*
X+1122644Y+5746972D01*
X+1120000Y+5747000D01*
X+993000Y+5620000D02*
X+993427Y+5630409D01*
X+996899Y+5651228D01*
X+1004155Y+5672047D01*
X+1015983Y+5692866D01*
X+1034080Y+5713524D01*
X+1054899Y+5729045D01*
X+1075718Y+5739030D01*
X+1096537Y+5744814D01*
X+1117356Y+5746972D01*
X+1120000Y+5747000D01*
X+993000Y+5620000D02*
X+993427Y+5609591D01*
X+996899Y+5588772D01*
X+1004155Y+5567953D01*
X+1015983Y+5547134D01*
X+1034080Y+5526476D01*
X+1054899Y+5510955D01*
X+1075718Y+5500970D01*
X+1096537Y+5495186D01*
X+1117356Y+5493028D01*
X+1120000Y+5493000D01*
X+1247000Y+5620000D02*
X+1246573Y+5609591D01*
X+1243101Y+5588772D01*
X+1235845Y+5567953D01*
X+1224017Y+5547134D01*
X+1205920Y+5526476D01*
X+1185101Y+5510955D01*
X+1164282Y+5500970D01*
X+1143463Y+5495186D01*
X+1122644Y+5493028D01*
X+1120000Y+5493000D01*
X+1183500Y+5620000D02*
X+1183283Y+5625247D01*
X+1181518Y+5635742D01*
X+1177826Y+5646237D01*
X+1171798Y+5656732D01*
X+1162576Y+5667112D01*
X+1152081Y+5674800D01*
X+1141586Y+5679718D01*
X+1131091Y+5682524D01*
X+1120596Y+5683497D01*
X+1120000Y+5683500D01*
X+1056500Y+5620000D02*
X+1056717Y+5625247D01*
X+1058482Y+5635742D01*
X+1062174Y+5646237D01*
X+1068202Y+5656732D01*
X+1077424Y+5667112D01*
X+1087919Y+5674800D01*
X+1098414Y+5679718D01*
X+1108909Y+5682524D01*
X+1119404Y+5683497D01*
X+1120000Y+5683500D01*
X+1056500Y+5620000D02*
X+1056717Y+5614753D01*
X+1058482Y+5604258D01*
X+1062174Y+5593763D01*
X+1068202Y+5583268D01*
X+1077424Y+5572888D01*
X+1087919Y+5565200D01*
X+1098414Y+5560282D01*
X+1108909Y+5557476D01*
X+1119404Y+5556503D01*
X+1120000Y+5556500D01*
X+1183500Y+5620000D02*
X+1183283Y+5614753D01*
X+1181518Y+5604258D01*
X+1177826Y+5593763D01*
X+1171798Y+5583268D01*
X+1162576Y+5572888D01*
X+1152081Y+5565200D01*
X+1141586Y+5560282D01*
X+1131091Y+5557476D01*
X+1120596Y+5556503D01*
X+1120000Y+5556500D01*
X+929500Y+5818120D02*
X+929500Y+5802880D01*
X+945375Y+5787640D01*
X+1008875Y+5787640D01*
X+1024750Y+5802880D01*
X+1024750Y+5879080D01*
X+1088250Y+5848600D02*
X+1120000Y+5879080D01*
X+1120000Y+5787640D01*
X+1199375Y+5863840D02*
X+1215250Y+5879080D01*
X+1262875Y+5879080D01*
X+1278750Y+5863840D01*
X+1278750Y+5848600D01*
X+1262875Y+5833360D01*
X+1215250Y+5833360D01*
X+1199375Y+5818120D01*
X+1199375Y+5787640D01*
X+1278750Y+5787640D01*
X+567000Y+5600000D02*
X+566573Y+5610409D01*
X+563101Y+5631228D01*
X+555845Y+5652047D01*
X+544017Y+5672866D01*
X+525920Y+5693524D01*
X+505101Y+5709045D01*
X+484282Y+5719030D01*
X+463463Y+5724814D01*
X+442644Y+5726972D01*
X+440000Y+5727000D01*
X+313000Y+5600000D02*
X+313427Y+5610409D01*
X+316899Y+5631228D01*
X+324155Y+5652047D01*
X+335983Y+5672866D01*
X+354080Y+5693524D01*
X+374899Y+5709045D01*
X+395718Y+5719030D01*
X+416537Y+5724814D01*
X+437356Y+5726972D01*
X+440000Y+5727000D01*
X+313000Y+5600000D02*
X+313427Y+5589591D01*
X+316899Y+5568772D01*
X+324155Y+5547953D01*
X+335983Y+5527134D01*
X+354080Y+5506476D01*
X+374899Y+5490955D01*
X+395718Y+5480970D01*
X+416537Y+5475186D01*
X+437356Y+5473028D01*
X+440000Y+5473000D01*
X+567000Y+5600000D02*
X+566573Y+5589591D01*
X+563101Y+5568772D01*
X+555845Y+5547953D01*
X+544017Y+5527134D01*
X+525920Y+5506476D01*
X+505101Y+5490955D01*
X+484282Y+5480970D01*
X+463463Y+5475186D01*
X+442644Y+5473028D01*
X+440000Y+5473000D01*
X+503500Y+5600000D02*
X+503283Y+5605247D01*
X+501518Y+5615742D01*
X+497826Y+5626237D01*
X+491798Y+5636732D01*
X+482576Y+5647112D01*
X+472081Y+5654800D01*
X+461586Y+5659718D01*
X+451091Y+5662524D01*
X+440596Y+5663497D01*
X+440000Y+5663500D01*
X+376500Y+5600000D02*
X+376717Y+5605247D01*
X+378482Y+5615742D01*
X+382174Y+5626237D01*
X+388202Y+5636732D01*
X+397424Y+5647112D01*
X+407919Y+5654800D01*
X+418414Y+5659718D01*
X+428909Y+5662524D01*
X+439404Y+5663497D01*
X+440000Y+5663500D01*
X+376500Y+5600000D02*
X+376717Y+5594753D01*
X+378482Y+5584258D01*
X+382174Y+5573763D01*
X+388202Y+5563268D01*
X+397424Y+5552888D01*
X+407919Y+5545200D01*
X+418414Y+5540282D01*
X+428909Y+5537476D01*
X+439404Y+5536503D01*
X+440000Y+5536500D01*
X+503500Y+5600000D02*
X+503283Y+5594753D01*
X+501518Y+5584258D01*
X+497826Y+5573763D01*
X+491798Y+5563268D01*
X+482576Y+5552888D01*
X+472081Y+5545200D01*
X+461586Y+5540282D01*
X+451091Y+5537476D01*
X+440596Y+5536503D01*
X+440000Y+5536500D01*
X+249500Y+5798120D02*
X+249500Y+5782880D01*
X+265375Y+5767640D01*
X+328875Y+5767640D01*
X+344750Y+5782880D01*
X+344750Y+5859080D01*
X+408250Y+5828600D02*
X+440000Y+5859080D01*
X+440000Y+5767640D01*
X+598750Y+5843840D02*
X+582875Y+5859080D01*
X+535250Y+5859080D01*
X+519375Y+5843840D01*
X+519375Y+5782880D01*
X+535250Y+5767640D01*
X+582875Y+5767640D01*
X+598750Y+5782880D01*
X+598750Y+5798120D01*
X+582875Y+5813360D01*
X+519375Y+5813360D01*
M02*
