G04 PROTEUS GERBER X2 FILE*
%TF.GenerationSoftware,Labcenter,Proteus,8.12-SP2-Build31155*%
%TF.CreationDate,2024-12-03T23:36:33+00:00*%
%TF.FileFunction,AssemblyDrawing,Top*%
%TF.FilePolarity,Positive*%
%TF.Part,Single*%
%TF.SameCoordinates,{80aaee04-2193-4ab7-8769-78595995fdec}*%
%FSLAX45Y45*%
%MOMM*%
G01*
%TA.AperFunction,Profile*%
%ADD71C,0.203200*%
%TA.AperFunction,Material*%
%ADD25C,0.203200*%
%ADD47C,0.812800*%
%ADD48C,0.177800*%
%ADD49C,0.330200*%
%ADD50C,0.220130*%
%ADD51C,0.211660*%
%ADD52C,0.571500*%
%ADD53C,0.300520*%
%ADD54C,0.268350*%
%ADD55C,0.234520*%
%ADD56C,0.050800*%
%ADD57C,1.143000*%
%ADD58C,0.269070*%
%ADD59C,0.084660*%
%TD.AperFunction*%
D71*
X+0Y+0D02*
X+1650000Y+0D01*
X+7000000Y+0D02*
X+7000000Y+6000000D01*
X+5000000Y+6000000D01*
X+5000000Y+3700000D01*
X+4800000Y+3500000D01*
X+2200000Y+3500000D01*
X+2000000Y+3700000D02*
X+2000000Y+6000000D01*
X+0Y+6000000D01*
X+0Y+0D01*
X+2000000Y+3700000D02*
X+2200000Y+3500000D01*
X+5160000Y+0D02*
X+7000000Y+0D01*
X+1750000Y-200000D02*
X+5050000Y-200000D01*
X+1650000Y+0D02*
X+1750000Y-200000D01*
X+5160000Y+0D02*
X+5050000Y-200000D01*
X+4550045Y+50000D02*
X+4549508Y+63142D01*
X+4545144Y+89427D01*
X+4536029Y+115712D01*
X+4521182Y+141997D01*
X+4498470Y+168118D01*
X+4472185Y+187898D01*
X+4445900Y+200658D01*
X+4419615Y+208108D01*
X+4393330Y+210987D01*
X+4389000Y+211045D01*
X+4227955Y+50000D02*
X+4228492Y+63142D01*
X+4232856Y+89427D01*
X+4241971Y+115712D01*
X+4256818Y+141997D01*
X+4279530Y+168118D01*
X+4305815Y+187898D01*
X+4332100Y+200658D01*
X+4358385Y+208108D01*
X+4384670Y+210987D01*
X+4389000Y+211045D01*
X+4227955Y+50000D02*
X+4228492Y+36858D01*
X+4232856Y+10573D01*
X+4241971Y-15712D01*
X+4256818Y-41997D01*
X+4279530Y-68118D01*
X+4305815Y-87898D01*
X+4332100Y-100658D01*
X+4358385Y-108108D01*
X+4384670Y-110987D01*
X+4389000Y-111045D01*
X+4550045Y+50000D02*
X+4549508Y+36858D01*
X+4545144Y+10573D01*
X+4536029Y-15712D01*
X+4521182Y-41997D01*
X+4498470Y-68118D01*
X+4472185Y-87898D01*
X+4445900Y-100658D01*
X+4419615Y-108108D01*
X+4393330Y-110987D01*
X+4389000Y-111045D01*
X+6074045Y+5130000D02*
X+6073508Y+5143142D01*
X+6069144Y+5169427D01*
X+6060029Y+5195712D01*
X+6045182Y+5221997D01*
X+6022470Y+5248118D01*
X+5996185Y+5267898D01*
X+5969900Y+5280658D01*
X+5943615Y+5288108D01*
X+5917330Y+5290987D01*
X+5913000Y+5291045D01*
X+5751955Y+5130000D02*
X+5752492Y+5143142D01*
X+5756856Y+5169427D01*
X+5765971Y+5195712D01*
X+5780818Y+5221997D01*
X+5803530Y+5248118D01*
X+5829815Y+5267898D01*
X+5856100Y+5280658D01*
X+5882385Y+5288108D01*
X+5908670Y+5290987D01*
X+5913000Y+5291045D01*
X+5751955Y+5130000D02*
X+5752492Y+5116858D01*
X+5756856Y+5090573D01*
X+5765971Y+5064288D01*
X+5780818Y+5038003D01*
X+5803530Y+5011882D01*
X+5829815Y+4992102D01*
X+5856100Y+4979342D01*
X+5882385Y+4971892D01*
X+5908670Y+4969013D01*
X+5913000Y+4968955D01*
X+6074045Y+5130000D02*
X+6073508Y+5116858D01*
X+6069144Y+5090573D01*
X+6060029Y+5064288D01*
X+6045182Y+5038003D01*
X+6022470Y+5011882D01*
X+5996185Y+4992102D01*
X+5969900Y+4979342D01*
X+5943615Y+4971892D01*
X+5917330Y+4969013D01*
X+5913000Y+4968955D01*
X+1248045Y+5257000D02*
X+1247508Y+5270142D01*
X+1243144Y+5296427D01*
X+1234029Y+5322712D01*
X+1219182Y+5348997D01*
X+1196470Y+5375118D01*
X+1170185Y+5394898D01*
X+1143900Y+5407658D01*
X+1117615Y+5415108D01*
X+1091330Y+5417987D01*
X+1087000Y+5418045D01*
X+925955Y+5257000D02*
X+926492Y+5270142D01*
X+930856Y+5296427D01*
X+939971Y+5322712D01*
X+954818Y+5348997D01*
X+977530Y+5375118D01*
X+1003815Y+5394898D01*
X+1030100Y+5407658D01*
X+1056385Y+5415108D01*
X+1082670Y+5417987D01*
X+1087000Y+5418045D01*
X+925955Y+5257000D02*
X+926492Y+5243858D01*
X+930856Y+5217573D01*
X+939971Y+5191288D01*
X+954818Y+5165003D01*
X+977530Y+5138882D01*
X+1003815Y+5119102D01*
X+1030100Y+5106342D01*
X+1056385Y+5098892D01*
X+1082670Y+5096013D01*
X+1087000Y+5095955D01*
X+1248045Y+5257000D02*
X+1247508Y+5243858D01*
X+1243144Y+5217573D01*
X+1234029Y+5191288D01*
X+1219182Y+5165003D01*
X+1196470Y+5138882D01*
X+1170185Y+5119102D01*
X+1143900Y+5106342D01*
X+1117615Y+5098892D01*
X+1091330Y+5096013D01*
X+1087000Y+5095955D01*
D25*
X+5104840Y+3362840D02*
X+6141160Y+3362840D01*
X+6141160Y+3637160D01*
X+5104840Y+3637160D01*
X+5104840Y+3362840D01*
D47*
X+6004000Y+3500000D02*
X+6004000Y+3500000D01*
D48*
X+5374080Y+3482220D02*
X+5374080Y+3464440D01*
X+5394082Y+3446660D01*
X+5474092Y+3446660D01*
X+5494095Y+3464440D01*
X+5494095Y+3553340D01*
X+5554102Y+3535560D02*
X+5574105Y+3553340D01*
X+5634112Y+3553340D01*
X+5654115Y+3535560D01*
X+5654115Y+3517780D01*
X+5634112Y+3500000D01*
X+5574105Y+3500000D01*
X+5554102Y+3482220D01*
X+5554102Y+3446660D01*
X+5654115Y+3446660D01*
D25*
X+3612840Y+572840D02*
X+3887160Y+572840D01*
X+3887160Y+3133160D01*
X+3612840Y+3133160D01*
X+3612840Y+572840D01*
D47*
X+3750000Y+2996000D02*
X+3750000Y+2996000D01*
D48*
X+3767780Y+1604080D02*
X+3785560Y+1604080D01*
X+3803340Y+1624082D01*
X+3803340Y+1704092D01*
X+3785560Y+1724095D01*
X+3696660Y+1724095D01*
X+3714440Y+1784102D02*
X+3696660Y+1804105D01*
X+3696660Y+1864112D01*
X+3714440Y+1884115D01*
X+3732220Y+1884115D01*
X+3750000Y+1864112D01*
X+3767780Y+1884115D01*
X+3785560Y+1884115D01*
X+3803340Y+1864112D01*
X+3803340Y+1804105D01*
X+3785560Y+1784102D01*
X+3750000Y+1824107D02*
X+3750000Y+1864112D01*
D25*
X+985840Y+1235840D02*
X+1768160Y+1235840D01*
X+1768160Y+2653160D01*
X+985840Y+2653160D01*
X+985840Y+1235840D01*
D47*
X+1250000Y+1500000D02*
X+1250000Y+1500000D01*
D49*
X+1410020Y+1799720D02*
X+1443040Y+1799720D01*
X+1476060Y+1836867D01*
X+1476060Y+1985457D01*
X+1443040Y+2022605D01*
X+1277940Y+2022605D01*
X+1410020Y+2319785D02*
X+1410020Y+2096900D01*
X+1277940Y+2245490D01*
X+1476060Y+2245490D01*
D25*
X+858840Y+3612840D02*
X+1895160Y+3612840D01*
X+1895160Y+3887160D01*
X+858840Y+3887160D01*
X+858840Y+3612840D01*
D47*
X+996000Y+3750000D02*
X+996000Y+3750000D01*
D48*
X+1305880Y+3732220D02*
X+1305880Y+3714440D01*
X+1325882Y+3696660D01*
X+1405892Y+3696660D01*
X+1425895Y+3714440D01*
X+1425895Y+3803340D01*
X+1585915Y+3785560D02*
X+1565912Y+3803340D01*
X+1505905Y+3803340D01*
X+1485902Y+3785560D01*
X+1485902Y+3714440D01*
X+1505905Y+3696660D01*
X+1565912Y+3696660D01*
X+1585915Y+3714440D01*
X+1585915Y+3732220D01*
X+1565912Y+3750000D01*
X+1485902Y+3750000D01*
D25*
X+850840Y+2862840D02*
X+1887160Y+2862840D01*
X+1887160Y+3137160D01*
X+850840Y+3137160D01*
X+850840Y+2862840D01*
D47*
X+1750000Y+3000000D02*
X+1750000Y+3000000D01*
D48*
X+1120080Y+2982220D02*
X+1120080Y+2964440D01*
X+1140082Y+2946660D01*
X+1220092Y+2946660D01*
X+1240095Y+2964440D01*
X+1240095Y+3053340D01*
X+1320105Y+3000000D02*
X+1300102Y+3017780D01*
X+1300102Y+3035560D01*
X+1320105Y+3053340D01*
X+1380112Y+3053340D01*
X+1400115Y+3035560D01*
X+1400115Y+3017780D01*
X+1380112Y+3000000D01*
X+1320105Y+3000000D01*
X+1300102Y+2982220D01*
X+1300102Y+2964440D01*
X+1320105Y+2946660D01*
X+1380112Y+2946660D01*
X+1400115Y+2964440D01*
X+1400115Y+2982220D01*
X+1380112Y+3000000D01*
D25*
X+5235840Y+3735840D02*
X+5891160Y+3735840D01*
X+5891160Y+4772160D01*
X+5235840Y+4772160D01*
X+5235840Y+3735840D01*
D47*
X+5500000Y+4508000D02*
X+5500000Y+4508000D01*
D50*
X+5585513Y+3903481D02*
X+5607527Y+3903481D01*
X+5629540Y+3928245D01*
X+5629540Y+4027305D01*
X+5607527Y+4052070D01*
X+5497460Y+4052070D01*
X+5541487Y+4250189D02*
X+5563500Y+4225424D01*
X+5563500Y+4151129D01*
X+5541487Y+4126364D01*
X+5519473Y+4126364D01*
X+5497460Y+4151129D01*
X+5497460Y+4225424D01*
X+5519473Y+4250189D01*
X+5607527Y+4250189D01*
X+5629540Y+4225424D01*
X+5629540Y+4151129D01*
D25*
X+3231840Y-141160D02*
X+4014160Y-141160D01*
X+4014160Y+514160D01*
X+3231840Y+514160D01*
X+3231840Y-141160D01*
D47*
X+3750000Y+250000D02*
X+3750000Y+250000D01*
D51*
X+3491767Y-3999D02*
X+3512934Y-3999D01*
X+3534100Y+19813D01*
X+3534100Y+115062D01*
X+3512934Y+138875D01*
X+3407101Y+138875D01*
X+3407101Y+210312D02*
X+3407101Y+329374D01*
X+3428267Y+329374D01*
X+3534100Y+210312D01*
D25*
X+1100840Y+235840D02*
X+2518160Y+235840D01*
X+2518160Y+1018160D01*
X+1100840Y+1018160D01*
X+1100840Y+235840D01*
D47*
X+2254000Y+500000D02*
X+2254000Y+500000D01*
D49*
X+1211330Y+593980D02*
X+1211330Y+560960D01*
X+1248477Y+527940D01*
X+1397067Y+527940D01*
X+1434215Y+560960D01*
X+1434215Y+726060D01*
X+1582805Y+660020D02*
X+1657100Y+726060D01*
X+1657100Y+527940D01*
X+2028575Y+726060D02*
X+1842837Y+726060D01*
X+1842837Y+660020D01*
X+1991427Y+660020D01*
X+2028575Y+627000D01*
X+2028575Y+560960D01*
X+1991427Y+527940D01*
X+1879985Y+527940D01*
X+1842837Y+560960D01*
D25*
X+4441200Y+1885320D02*
X+5558800Y+1885320D01*
X+5558800Y+3114680D01*
X+4441200Y+3114680D01*
X+4441200Y+1885320D01*
D52*
X+5457200Y+1928500D02*
X+5457200Y+1928500D01*
D53*
X+4909843Y+2265406D02*
X+5060105Y+2265406D01*
X+5090158Y+2299214D01*
X+5090158Y+2434450D01*
X+5060105Y+2468259D01*
X+4909843Y+2468259D01*
X+4969948Y+2603494D02*
X+4909843Y+2671112D01*
X+5090158Y+2671112D01*
D25*
X+1138050Y+4012320D02*
X+1861950Y+4012320D01*
X+1861950Y+4987680D01*
X+1138050Y+4987680D01*
X+1138050Y+4012320D01*
D52*
X+1239650Y+4944500D02*
X+1239650Y+4944500D01*
D54*
X+1419495Y+4222608D02*
X+1553670Y+4222608D01*
X+1580505Y+4252797D01*
X+1580505Y+4373554D01*
X+1553670Y+4403744D01*
X+1419495Y+4403744D01*
X+1446330Y+4494312D02*
X+1419495Y+4524501D01*
X+1419495Y+4615069D01*
X+1446330Y+4645259D01*
X+1473165Y+4645259D01*
X+1500000Y+4615069D01*
X+1500000Y+4524501D01*
X+1526835Y+4494312D01*
X+1580505Y+4494312D01*
X+1580505Y+4645259D01*
D25*
X+2638050Y+766320D02*
X+3361950Y+766320D01*
X+3361950Y+1233680D01*
X+2638050Y+1233680D01*
X+2638050Y+766320D01*
D52*
X+2739650Y+1190500D02*
X+2739650Y+1190500D01*
D55*
X+2788927Y+1034480D02*
X+2788927Y+917217D01*
X+2815311Y+893765D01*
X+2920847Y+893765D01*
X+2947231Y+917217D01*
X+2947231Y+1034480D01*
X+3026384Y+1011028D02*
X+3052768Y+1034480D01*
X+3131920Y+1034480D01*
X+3158304Y+1011028D01*
X+3158304Y+987575D01*
X+3131920Y+964123D01*
X+3158304Y+940670D01*
X+3158304Y+917217D01*
X+3131920Y+893765D01*
X+3052768Y+893765D01*
X+3026384Y+917217D01*
X+3079152Y+964123D02*
X+3131920Y+964123D01*
D25*
X+2251970Y+1324550D02*
X+3227330Y+1324550D01*
X+3227330Y+2048450D01*
X+2251970Y+2048450D01*
X+2251970Y+1324550D01*
D52*
X+3184150Y+1946850D02*
X+3184150Y+1946850D01*
D54*
X+2462258Y+1767005D02*
X+2462258Y+1632830D01*
X+2492447Y+1605995D01*
X+2613204Y+1605995D01*
X+2643394Y+1632830D01*
X+2643394Y+1767005D01*
X+2884909Y+1659665D02*
X+2703773Y+1659665D01*
X+2824530Y+1767005D01*
X+2824530Y+1605995D01*
D25*
X+4148400Y+317820D02*
X+5266000Y+317820D01*
X+5266000Y+1547180D01*
X+4148400Y+1547180D01*
X+4148400Y+317820D01*
D52*
X+4250000Y+1504000D02*
X+4250000Y+1504000D01*
D53*
X+4617043Y+626152D02*
X+4767305Y+626152D01*
X+4797358Y+659960D01*
X+4797358Y+795196D01*
X+4767305Y+829005D01*
X+4617043Y+829005D01*
X+4617043Y+1099476D02*
X+4617043Y+930431D01*
X+4677148Y+930431D01*
X+4677148Y+1065667D01*
X+4707200Y+1099476D01*
X+4767305Y+1099476D01*
X+4797358Y+1065667D01*
X+4797358Y+964240D01*
X+4767305Y+930431D01*
D25*
X+5358840Y+235840D02*
X+6014160Y+235840D01*
X+6014160Y+1272160D01*
X+5358840Y+1272160D01*
X+5358840Y+235840D01*
D47*
X+5750000Y+500000D02*
X+5750000Y+500000D01*
D50*
X+5708513Y+708281D02*
X+5730527Y+708281D01*
X+5752540Y+733045D01*
X+5752540Y+832105D01*
X+5730527Y+856870D01*
X+5620460Y+856870D01*
X+5664487Y+955929D02*
X+5620460Y+1005459D01*
X+5752540Y+1005459D01*
D56*
X+2292800Y+2254700D02*
X+3207200Y+2254700D01*
X+3207200Y+3245300D01*
X+2292800Y+3245300D01*
X+2292800Y+2254700D01*
D57*
X+2496000Y+2432500D02*
X+2496000Y+2432500D01*
D58*
X+2386756Y+2788024D02*
X+2386756Y+2949466D01*
X+2538107Y+2949466D01*
X+2568378Y+2922559D01*
X+2568378Y+2895652D01*
X+2538107Y+2868745D01*
X+2386756Y+2868745D01*
X+2538107Y+2868745D02*
X+2568378Y+2841838D01*
X+2568378Y+2788024D01*
X+2628919Y+2949466D02*
X+2628919Y+2868745D01*
X+2719730Y+2788024D01*
X+2810541Y+2868745D01*
X+2810541Y+2949466D01*
X+2931622Y+2895652D02*
X+2992163Y+2949466D01*
X+2992163Y+2788024D01*
D25*
X+3302840Y+1312840D02*
X+3577160Y+1312840D01*
X+3577160Y+1587160D01*
X+3302840Y+1587160D01*
X+3302840Y+1312840D01*
D59*
X+3363801Y+1441533D02*
X+3363801Y+1433066D01*
X+3373325Y+1424600D01*
X+3411425Y+1424600D01*
X+3420950Y+1433066D01*
X+3420950Y+1475399D01*
X+3497149Y+1475399D02*
X+3449524Y+1475399D01*
X+3449524Y+1458466D01*
X+3487624Y+1458466D01*
X+3497149Y+1450000D01*
X+3497149Y+1433066D01*
X+3487624Y+1424600D01*
X+3459049Y+1424600D01*
X+3449524Y+1433066D01*
D25*
X+2022840Y+2092840D02*
X+2297160Y+2092840D01*
X+2297160Y+2367160D01*
X+2022840Y+2367160D01*
X+2022840Y+2092840D01*
D59*
X+2045702Y+2221533D02*
X+2045702Y+2213066D01*
X+2055226Y+2204600D01*
X+2093326Y+2204600D01*
X+2102851Y+2213066D01*
X+2102851Y+2255399D01*
X+2140950Y+2238466D02*
X+2160000Y+2255399D01*
X+2160000Y+2204600D01*
X+2217149Y+2238466D02*
X+2236199Y+2255399D01*
X+2236199Y+2204600D01*
D25*
X+5272840Y+4932840D02*
X+5547160Y+4932840D01*
X+5547160Y+5207160D01*
X+5272840Y+5207160D01*
X+5272840Y+4932840D01*
D59*
X+5295702Y+5061533D02*
X+5295702Y+5053066D01*
X+5305226Y+5044600D01*
X+5343326Y+5044600D01*
X+5352851Y+5053066D01*
X+5352851Y+5095399D01*
X+5390950Y+5078466D02*
X+5410000Y+5095399D01*
X+5410000Y+5044600D01*
X+5457624Y+5086933D02*
X+5467149Y+5095399D01*
X+5495724Y+5095399D01*
X+5505249Y+5086933D01*
X+5505249Y+5078466D01*
X+5495724Y+5070000D01*
X+5505249Y+5061533D01*
X+5505249Y+5053066D01*
X+5495724Y+5044600D01*
X+5467149Y+5044600D01*
X+5457624Y+5053066D01*
X+5476674Y+5070000D02*
X+5495724Y+5070000D01*
D25*
X+6072840Y+5242840D02*
X+6347160Y+5242840D01*
X+6347160Y+5517160D01*
X+6072840Y+5517160D01*
X+6072840Y+5242840D01*
D59*
X+6095702Y+5371533D02*
X+6095702Y+5363066D01*
X+6105226Y+5354600D01*
X+6143326Y+5354600D01*
X+6152851Y+5363066D01*
X+6152851Y+5405399D01*
X+6190950Y+5388466D02*
X+6210000Y+5405399D01*
X+6210000Y+5354600D01*
X+6248100Y+5363066D02*
X+6248100Y+5396933D01*
X+6257624Y+5405399D01*
X+6295724Y+5405399D01*
X+6305249Y+5396933D01*
X+6305249Y+5363066D01*
X+6295724Y+5354600D01*
X+6257624Y+5354600D01*
X+6248100Y+5363066D01*
X+6248100Y+5354600D02*
X+6305249Y+5405399D01*
D25*
X+982840Y+5482840D02*
X+1257160Y+5482840D01*
X+1257160Y+5757160D01*
X+982840Y+5757160D01*
X+982840Y+5482840D01*
D59*
X+1005702Y+5611533D02*
X+1005702Y+5603066D01*
X+1015226Y+5594600D01*
X+1053326Y+5594600D01*
X+1062851Y+5603066D01*
X+1062851Y+5645399D01*
X+1100950Y+5628466D02*
X+1120000Y+5645399D01*
X+1120000Y+5594600D01*
X+1167624Y+5636933D02*
X+1177149Y+5645399D01*
X+1205724Y+5645399D01*
X+1215249Y+5636933D01*
X+1215249Y+5628466D01*
X+1205724Y+5620000D01*
X+1177149Y+5620000D01*
X+1167624Y+5611533D01*
X+1167624Y+5594600D01*
X+1215249Y+5594600D01*
D25*
X+302840Y+5462840D02*
X+577160Y+5462840D01*
X+577160Y+5737160D01*
X+302840Y+5737160D01*
X+302840Y+5462840D01*
D59*
X+325702Y+5591533D02*
X+325702Y+5583066D01*
X+335226Y+5574600D01*
X+373326Y+5574600D01*
X+382851Y+5583066D01*
X+382851Y+5625399D01*
X+420950Y+5608466D02*
X+440000Y+5625399D01*
X+440000Y+5574600D01*
X+535249Y+5616933D02*
X+525724Y+5625399D01*
X+497149Y+5625399D01*
X+487624Y+5616933D01*
X+487624Y+5583066D01*
X+497149Y+5574600D01*
X+525724Y+5574600D01*
X+535249Y+5583066D01*
X+535249Y+5591533D01*
X+525724Y+5600000D01*
X+487624Y+5600000D01*
M02*
