G04 PROTEUS GERBER X2 FILE*
%TF.GenerationSoftware,Labcenter,Proteus,8.12-SP2-Build31155*%
%TF.CreationDate,2024-12-03T23:36:33+00:00*%
%TF.FileFunction,AssemblyDrawing,Bot*%
%TF.FilePolarity,Positive*%
%TF.Part,Single*%
%TF.SameCoordinates,{80aaee04-2193-4ab7-8769-78595995fdec}*%
%FSLAX45Y45*%
%MOMM*%
G01*
%TA.AperFunction,Profile*%
%ADD71C,0.203200*%
%TA.AperFunction,Material*%
%ADD25C,0.203200*%
%ADD60C,0.508000*%
%ADD61C,0.461430*%
%ADD62C,0.473190*%
%ADD63C,0.050000*%
%ADD64C,0.243840*%
%ADD65C,0.038320*%
%ADD66C,0.579120*%
%ADD67C,0.072740*%
%TD.AperFunction*%
D71*
X+0Y+0D02*
X+1650000Y+0D01*
X+7000000Y+0D02*
X+7000000Y+6000000D01*
X+5000000Y+6000000D01*
X+5000000Y+3700000D01*
X+4800000Y+3500000D01*
X+2200000Y+3500000D01*
X+2000000Y+3700000D02*
X+2000000Y+6000000D01*
X+0Y+6000000D01*
X+0Y+0D01*
X+2000000Y+3700000D02*
X+2200000Y+3500000D01*
X+5160000Y+0D02*
X+7000000Y+0D01*
X+1750000Y-200000D02*
X+5050000Y-200000D01*
X+1650000Y+0D02*
X+1750000Y-200000D01*
X+5160000Y+0D02*
X+5050000Y-200000D01*
X+4550045Y+50000D02*
X+4549508Y+63142D01*
X+4545144Y+89427D01*
X+4536029Y+115712D01*
X+4521182Y+141997D01*
X+4498470Y+168118D01*
X+4472185Y+187898D01*
X+4445900Y+200658D01*
X+4419615Y+208108D01*
X+4393330Y+210987D01*
X+4389000Y+211045D01*
X+4227955Y+50000D02*
X+4228492Y+63142D01*
X+4232856Y+89427D01*
X+4241971Y+115712D01*
X+4256818Y+141997D01*
X+4279530Y+168118D01*
X+4305815Y+187898D01*
X+4332100Y+200658D01*
X+4358385Y+208108D01*
X+4384670Y+210987D01*
X+4389000Y+211045D01*
X+4227955Y+50000D02*
X+4228492Y+36858D01*
X+4232856Y+10573D01*
X+4241971Y-15712D01*
X+4256818Y-41997D01*
X+4279530Y-68118D01*
X+4305815Y-87898D01*
X+4332100Y-100658D01*
X+4358385Y-108108D01*
X+4384670Y-110987D01*
X+4389000Y-111045D01*
X+4550045Y+50000D02*
X+4549508Y+36858D01*
X+4545144Y+10573D01*
X+4536029Y-15712D01*
X+4521182Y-41997D01*
X+4498470Y-68118D01*
X+4472185Y-87898D01*
X+4445900Y-100658D01*
X+4419615Y-108108D01*
X+4393330Y-110987D01*
X+4389000Y-111045D01*
X+6074045Y+5130000D02*
X+6073508Y+5143142D01*
X+6069144Y+5169427D01*
X+6060029Y+5195712D01*
X+6045182Y+5221997D01*
X+6022470Y+5248118D01*
X+5996185Y+5267898D01*
X+5969900Y+5280658D01*
X+5943615Y+5288108D01*
X+5917330Y+5290987D01*
X+5913000Y+5291045D01*
X+5751955Y+5130000D02*
X+5752492Y+5143142D01*
X+5756856Y+5169427D01*
X+5765971Y+5195712D01*
X+5780818Y+5221997D01*
X+5803530Y+5248118D01*
X+5829815Y+5267898D01*
X+5856100Y+5280658D01*
X+5882385Y+5288108D01*
X+5908670Y+5290987D01*
X+5913000Y+5291045D01*
X+5751955Y+5130000D02*
X+5752492Y+5116858D01*
X+5756856Y+5090573D01*
X+5765971Y+5064288D01*
X+5780818Y+5038003D01*
X+5803530Y+5011882D01*
X+5829815Y+4992102D01*
X+5856100Y+4979342D01*
X+5882385Y+4971892D01*
X+5908670Y+4969013D01*
X+5913000Y+4968955D01*
X+6074045Y+5130000D02*
X+6073508Y+5116858D01*
X+6069144Y+5090573D01*
X+6060029Y+5064288D01*
X+6045182Y+5038003D01*
X+6022470Y+5011882D01*
X+5996185Y+4992102D01*
X+5969900Y+4979342D01*
X+5943615Y+4971892D01*
X+5917330Y+4969013D01*
X+5913000Y+4968955D01*
X+1248045Y+5257000D02*
X+1247508Y+5270142D01*
X+1243144Y+5296427D01*
X+1234029Y+5322712D01*
X+1219182Y+5348997D01*
X+1196470Y+5375118D01*
X+1170185Y+5394898D01*
X+1143900Y+5407658D01*
X+1117615Y+5415108D01*
X+1091330Y+5417987D01*
X+1087000Y+5418045D01*
X+925955Y+5257000D02*
X+926492Y+5270142D01*
X+930856Y+5296427D01*
X+939971Y+5322712D01*
X+954818Y+5348997D01*
X+977530Y+5375118D01*
X+1003815Y+5394898D01*
X+1030100Y+5407658D01*
X+1056385Y+5415108D01*
X+1082670Y+5417987D01*
X+1087000Y+5418045D01*
X+925955Y+5257000D02*
X+926492Y+5243858D01*
X+930856Y+5217573D01*
X+939971Y+5191288D01*
X+954818Y+5165003D01*
X+977530Y+5138882D01*
X+1003815Y+5119102D01*
X+1030100Y+5106342D01*
X+1056385Y+5098892D01*
X+1082670Y+5096013D01*
X+1087000Y+5095955D01*
X+1248045Y+5257000D02*
X+1247508Y+5243858D01*
X+1243144Y+5217573D01*
X+1234029Y+5191288D01*
X+1219182Y+5165003D01*
X+1196470Y+5138882D01*
X+1170185Y+5119102D01*
X+1143900Y+5106342D01*
X+1117615Y+5098892D01*
X+1091330Y+5096013D01*
X+1087000Y+5095955D01*
D25*
X+59840Y+35840D02*
X+840160Y+35840D01*
X+840160Y+5136160D01*
X+59840Y+5136160D01*
X+59840Y+35840D01*
D60*
X+260000Y+4876000D02*
X+260000Y+4876000D01*
D61*
X+542288Y+2754691D02*
X+588432Y+2806603D01*
X+588432Y+2962339D01*
X+496144Y+3066162D01*
X+403856Y+3066162D01*
X+311568Y+2962339D01*
X+311568Y+2806603D01*
X+357712Y+2754691D01*
X+588432Y+2650867D02*
X+311568Y+2650867D01*
X+588432Y+2339396D01*
X+311568Y+2339396D01*
X+311568Y+2183661D02*
X+311568Y+1924101D01*
X+357712Y+1924101D01*
X+588432Y+2183661D01*
D25*
X+6155840Y+39840D02*
X+6936160Y+39840D01*
X+6936160Y+5140160D01*
X+6155840Y+5140160D01*
X+6155840Y+39840D01*
D60*
X+6356000Y+4880000D02*
X+6356000Y+4880000D01*
D62*
X+6640640Y+2979569D02*
X+6687960Y+3032804D01*
X+6687960Y+3192509D01*
X+6593320Y+3298978D01*
X+6498680Y+3298978D01*
X+6404040Y+3192509D01*
X+6404040Y+3032804D01*
X+6451360Y+2979569D01*
X+6687960Y+2873099D02*
X+6404040Y+2873099D01*
X+6687960Y+2553690D01*
X+6404040Y+2553690D01*
X+6498680Y+2340751D02*
X+6404040Y+2234281D01*
X+6687960Y+2234281D01*
X+6640640Y+2021341D02*
X+6451360Y+2021341D01*
X+6404040Y+1968107D01*
X+6404040Y+1755167D01*
X+6451360Y+1701932D01*
X+6640640Y+1701932D01*
X+6687960Y+1755167D01*
X+6687960Y+1968107D01*
X+6640640Y+2021341D01*
X+6687960Y+2021341D02*
X+6404040Y+1701932D01*
D63*
X+5625000Y+2695000D02*
X+5625000Y+2885000D01*
X+5715000Y+2885000D01*
X+5715000Y+2695000D01*
X+5625000Y+2695000D01*
X+5695000Y+2790000D02*
X+5645000Y+2790000D01*
X+5670000Y+2815000D02*
X+5670000Y+2765000D01*
D64*
X+5670000Y+2740000D02*
X+5670000Y+2740000D01*
D65*
X+5681499Y+2854342D02*
X+5658501Y+2854342D01*
X+5658501Y+2832782D01*
X+5662334Y+2828470D01*
X+5666167Y+2828470D01*
X+5670000Y+2832782D01*
X+5670000Y+2854342D01*
X+5670000Y+2832782D02*
X+5673833Y+2828470D01*
X+5681499Y+2828470D01*
X+5666167Y+2811222D02*
X+5658501Y+2802598D01*
X+5681499Y+2802598D01*
D63*
X+5955000Y+2705000D02*
X+5955000Y+2895000D01*
X+6045000Y+2895000D01*
X+6045000Y+2705000D01*
X+5955000Y+2705000D01*
X+6025000Y+2800000D02*
X+5975000Y+2800000D01*
X+6000000Y+2825000D02*
X+6000000Y+2775000D01*
D64*
X+6000000Y+2750000D02*
X+6000000Y+2750000D01*
D65*
X+6011499Y+2864342D02*
X+5988501Y+2864342D01*
X+5988501Y+2842782D01*
X+5992334Y+2838470D01*
X+5996167Y+2838470D01*
X+6000000Y+2842782D01*
X+6000000Y+2864342D01*
X+6000000Y+2842782D02*
X+6003833Y+2838470D01*
X+6011499Y+2838470D01*
X+5992334Y+2825534D02*
X+5988501Y+2821222D01*
X+5988501Y+2808286D01*
X+5992334Y+2803974D01*
X+5996167Y+2803974D01*
X+6000000Y+2808286D01*
X+6000000Y+2821222D01*
X+6003833Y+2825534D01*
X+6011499Y+2825534D01*
X+6011499Y+2803974D01*
D63*
X+5205000Y+2705000D02*
X+5205000Y+2895000D01*
X+5295000Y+2895000D01*
X+5295000Y+2705000D01*
X+5205000Y+2705000D01*
X+5275000Y+2800000D02*
X+5225000Y+2800000D01*
X+5250000Y+2825000D02*
X+5250000Y+2775000D01*
D64*
X+5250000Y+2750000D02*
X+5250000Y+2750000D01*
D65*
X+5261499Y+2864342D02*
X+5238501Y+2864342D01*
X+5238501Y+2842782D01*
X+5242334Y+2838470D01*
X+5246167Y+2838470D01*
X+5250000Y+2842782D01*
X+5250000Y+2864342D01*
X+5250000Y+2842782D02*
X+5253833Y+2838470D01*
X+5261499Y+2838470D01*
X+5242334Y+2825534D02*
X+5238501Y+2821222D01*
X+5238501Y+2808286D01*
X+5242334Y+2803974D01*
X+5246167Y+2803974D01*
X+5250000Y+2808286D01*
X+5253833Y+2803974D01*
X+5257666Y+2803974D01*
X+5261499Y+2808286D01*
X+5261499Y+2821222D01*
X+5257666Y+2825534D01*
X+5250000Y+2816910D02*
X+5250000Y+2808286D01*
D63*
X+1235000Y+2100000D02*
X+1585000Y+2100000D01*
X+1585000Y+1900000D01*
X+1235000Y+1900000D01*
X+1235000Y+2100000D01*
X+1410000Y+1950000D02*
X+1410000Y+2050000D01*
X+1460000Y+2000000D02*
X+1360000Y+2000000D01*
D66*
X+1320000Y+2000000D02*
X+1320000Y+2000000D01*
D67*
X+1484595Y+1985452D02*
X+1492778Y+1978178D01*
X+1517328Y+1978178D01*
X+1533694Y+1992726D01*
X+1533694Y+2007274D01*
X+1517328Y+2021822D01*
X+1492778Y+2021822D01*
X+1484595Y+2014548D01*
X+1419129Y+2021822D02*
X+1460045Y+2021822D01*
X+1460045Y+2007274D01*
X+1427312Y+2007274D01*
X+1419129Y+2000000D01*
X+1419129Y+1985452D01*
X+1427312Y+1978178D01*
X+1451862Y+1978178D01*
X+1460045Y+1985452D01*
D63*
X+1650000Y+415000D02*
X+1650000Y+765000D01*
X+1850000Y+765000D01*
X+1850000Y+415000D01*
X+1650000Y+415000D01*
X+1800000Y+590000D02*
X+1700000Y+590000D01*
X+1750000Y+640000D02*
X+1750000Y+540000D01*
D66*
X+1750000Y+500000D02*
X+1750000Y+500000D01*
D67*
X+1764548Y+697328D02*
X+1771822Y+705511D01*
X+1771822Y+730061D01*
X+1757274Y+746427D01*
X+1742726Y+746427D01*
X+1728178Y+730061D01*
X+1728178Y+705511D01*
X+1735452Y+697328D01*
X+1742726Y+664595D02*
X+1728178Y+648228D01*
X+1771822Y+648228D01*
X+1764548Y+615495D02*
X+1735452Y+615495D01*
X+1728178Y+607312D01*
X+1728178Y+574579D01*
X+1735452Y+566396D01*
X+1764548Y+566396D01*
X+1771822Y+574579D01*
X+1771822Y+607312D01*
X+1764548Y+615495D01*
X+1771822Y+615495D02*
X+1728178Y+566396D01*
D63*
X+985000Y+3510000D02*
X+1335000Y+3510000D01*
X+1335000Y+3310000D01*
X+985000Y+3310000D01*
X+985000Y+3510000D01*
X+1160000Y+3360000D02*
X+1160000Y+3460000D01*
X+1210000Y+3410000D02*
X+1110000Y+3410000D01*
D66*
X+1070000Y+3410000D02*
X+1070000Y+3410000D01*
D67*
X+1234595Y+3395452D02*
X+1242778Y+3388178D01*
X+1267328Y+3388178D01*
X+1283694Y+3402726D01*
X+1283694Y+3417274D01*
X+1267328Y+3431822D01*
X+1242778Y+3431822D01*
X+1234595Y+3424548D01*
X+1210045Y+3424548D02*
X+1201862Y+3431822D01*
X+1177312Y+3431822D01*
X+1169129Y+3424548D01*
X+1169129Y+3417274D01*
X+1177312Y+3410000D01*
X+1201862Y+3410000D01*
X+1210045Y+3402726D01*
X+1210045Y+3388178D01*
X+1169129Y+3388178D01*
D63*
X+850000Y+4015000D02*
X+850000Y+4365000D01*
X+1050000Y+4365000D01*
X+1050000Y+4015000D01*
X+850000Y+4015000D01*
X+1000000Y+4190000D02*
X+900000Y+4190000D01*
X+950000Y+4240000D02*
X+950000Y+4140000D01*
D66*
X+950000Y+4100000D02*
X+950000Y+4100000D01*
D67*
X+964548Y+4264595D02*
X+971822Y+4272778D01*
X+971822Y+4297328D01*
X+957274Y+4313694D01*
X+942726Y+4313694D01*
X+928178Y+4297328D01*
X+928178Y+4272778D01*
X+935452Y+4264595D01*
X+942726Y+4231862D02*
X+928178Y+4215495D01*
X+971822Y+4215495D01*
D63*
X+4815000Y+1275000D02*
X+4625000Y+1275000D01*
X+4625000Y+1365000D01*
X+4815000Y+1365000D01*
X+4815000Y+1275000D01*
X+4720000Y+1345000D02*
X+4720000Y+1295000D01*
X+4695000Y+1320000D02*
X+4745000Y+1320000D01*
D64*
X+4770000Y+1320000D02*
X+4770000Y+1320000D01*
D65*
X+4724650Y+1308501D02*
X+4724650Y+1331499D01*
X+4703090Y+1331499D01*
X+4698778Y+1327666D01*
X+4698778Y+1323833D01*
X+4703090Y+1320000D01*
X+4724650Y+1320000D01*
X+4703090Y+1320000D02*
X+4698778Y+1316167D01*
X+4698778Y+1308501D01*
X+4664282Y+1316167D02*
X+4690154Y+1316167D01*
X+4672906Y+1331499D01*
X+4672906Y+1308501D01*
D63*
X+2815000Y+1210000D02*
X+3165000Y+1210000D01*
X+3165000Y+1010000D01*
X+2815000Y+1010000D01*
X+2815000Y+1210000D01*
X+2990000Y+1060000D02*
X+2990000Y+1160000D01*
X+3040000Y+1110000D02*
X+2940000Y+1110000D01*
D66*
X+2900000Y+1110000D02*
X+2900000Y+1110000D01*
D67*
X+3064595Y+1095452D02*
X+3072778Y+1088178D01*
X+3097328Y+1088178D01*
X+3113694Y+1102726D01*
X+3113694Y+1117274D01*
X+3097328Y+1131822D01*
X+3072778Y+1131822D01*
X+3064595Y+1124548D01*
X+2999129Y+1117274D02*
X+3007312Y+1110000D01*
X+3031862Y+1110000D01*
X+3040045Y+1117274D01*
X+3040045Y+1124548D01*
X+3031862Y+1131822D01*
X+3007312Y+1131822D01*
X+2999129Y+1124548D01*
X+2999129Y+1095452D01*
X+3007312Y+1088178D01*
X+3031862Y+1088178D01*
D63*
X+2825000Y+830000D02*
X+3175000Y+830000D01*
X+3175000Y+630000D01*
X+2825000Y+630000D01*
X+2825000Y+830000D01*
X+3000000Y+680000D02*
X+3000000Y+780000D01*
X+3050000Y+730000D02*
X+2950000Y+730000D01*
D66*
X+2910000Y+730000D02*
X+2910000Y+730000D01*
D67*
X+3074595Y+715452D02*
X+3082778Y+708178D01*
X+3107328Y+708178D01*
X+3123694Y+722726D01*
X+3123694Y+737274D01*
X+3107328Y+751822D01*
X+3082778Y+751822D01*
X+3074595Y+744548D01*
X+3009129Y+744548D02*
X+3017312Y+751822D01*
X+3041862Y+751822D01*
X+3050045Y+744548D01*
X+3050045Y+715452D01*
X+3041862Y+708178D01*
X+3017312Y+708178D01*
X+3009129Y+715452D01*
X+3009129Y+722726D01*
X+3017312Y+730000D01*
X+3050045Y+730000D01*
D63*
X+2925000Y+2620000D02*
X+2575000Y+2620000D01*
X+2575000Y+2820000D01*
X+2925000Y+2820000D01*
X+2925000Y+2620000D01*
X+2750000Y+2770000D02*
X+2750000Y+2670000D01*
X+2700000Y+2720000D02*
X+2800000Y+2720000D01*
D66*
X+2840000Y+2720000D02*
X+2840000Y+2720000D01*
D67*
X+2708139Y+2705452D02*
X+2716322Y+2698178D01*
X+2740872Y+2698178D01*
X+2757238Y+2712726D01*
X+2757238Y+2727274D01*
X+2740872Y+2741822D01*
X+2716322Y+2741822D01*
X+2708139Y+2734548D01*
X+2683589Y+2741822D02*
X+2642673Y+2741822D01*
X+2642673Y+2734548D01*
X+2683589Y+2698178D01*
D63*
X+1070000Y+2745000D02*
X+1070000Y+2395000D01*
X+870000Y+2395000D01*
X+870000Y+2745000D01*
X+1070000Y+2745000D01*
X+920000Y+2570000D02*
X+1020000Y+2570000D01*
X+970000Y+2520000D02*
X+970000Y+2620000D01*
D66*
X+970000Y+2660000D02*
X+970000Y+2660000D01*
D67*
X+984548Y+2528139D02*
X+991822Y+2536322D01*
X+991822Y+2560872D01*
X+977274Y+2577238D01*
X+962726Y+2577238D01*
X+948178Y+2560872D01*
X+948178Y+2536322D01*
X+955452Y+2528139D01*
X+977274Y+2462673D02*
X+977274Y+2511772D01*
X+948178Y+2479039D01*
X+991822Y+2479039D01*
D63*
X+1080000Y+2265000D02*
X+1080000Y+1915000D01*
X+880000Y+1915000D01*
X+880000Y+2265000D01*
X+1080000Y+2265000D01*
X+930000Y+2090000D02*
X+1030000Y+2090000D01*
X+980000Y+2040000D02*
X+980000Y+2140000D01*
D66*
X+980000Y+2180000D02*
X+980000Y+2180000D01*
D67*
X+994548Y+2048139D02*
X+1001822Y+2056322D01*
X+1001822Y+2080872D01*
X+987274Y+2097238D01*
X+972726Y+2097238D01*
X+958178Y+2080872D01*
X+958178Y+2056322D01*
X+965452Y+2048139D01*
X+980000Y+2015406D02*
X+972726Y+2023589D01*
X+965452Y+2023589D01*
X+958178Y+2015406D01*
X+958178Y+1990856D01*
X+965452Y+1982673D01*
X+972726Y+1982673D01*
X+980000Y+1990856D01*
X+980000Y+2015406D01*
X+987274Y+2023589D01*
X+994548Y+2023589D01*
X+1001822Y+2015406D01*
X+1001822Y+1990856D01*
X+994548Y+1982673D01*
X+987274Y+1982673D01*
X+980000Y+1990856D01*
D63*
X+4170000Y+1005000D02*
X+4170000Y+655000D01*
X+3970000Y+655000D01*
X+3970000Y+1005000D01*
X+4170000Y+1005000D01*
X+4020000Y+830000D02*
X+4120000Y+830000D01*
X+4070000Y+780000D02*
X+4070000Y+880000D01*
D66*
X+4070000Y+920000D02*
X+4070000Y+920000D01*
D67*
X+4084548Y+820872D02*
X+4091822Y+829055D01*
X+4091822Y+853605D01*
X+4077274Y+869971D01*
X+4062726Y+869971D01*
X+4048178Y+853605D01*
X+4048178Y+829055D01*
X+4055452Y+820872D01*
X+4062726Y+788139D02*
X+4048178Y+771772D01*
X+4091822Y+771772D01*
X+4055452Y+730856D02*
X+4048178Y+722673D01*
X+4048178Y+698123D01*
X+4055452Y+689940D01*
X+4062726Y+689940D01*
X+4070000Y+698123D01*
X+4070000Y+722673D01*
X+4077274Y+730856D01*
X+4091822Y+730856D01*
X+4091822Y+689940D01*
D63*
X+5385000Y+1440000D02*
X+5735000Y+1440000D01*
X+5735000Y+1240000D01*
X+5385000Y+1240000D01*
X+5385000Y+1440000D01*
X+5560000Y+1290000D02*
X+5560000Y+1390000D01*
X+5610000Y+1340000D02*
X+5510000Y+1340000D01*
D66*
X+5470000Y+1340000D02*
X+5470000Y+1340000D01*
D67*
X+5667328Y+1325452D02*
X+5675511Y+1318178D01*
X+5700061Y+1318178D01*
X+5716427Y+1332726D01*
X+5716427Y+1347274D01*
X+5700061Y+1361822D01*
X+5675511Y+1361822D01*
X+5667328Y+1354548D01*
X+5634595Y+1347274D02*
X+5618228Y+1361822D01*
X+5618228Y+1318178D01*
X+5577312Y+1354548D02*
X+5569129Y+1361822D01*
X+5544579Y+1361822D01*
X+5536396Y+1354548D01*
X+5536396Y+1347274D01*
X+5544579Y+1340000D01*
X+5536396Y+1332726D01*
X+5536396Y+1325452D01*
X+5544579Y+1318178D01*
X+5569129Y+1318178D01*
X+5577312Y+1325452D01*
X+5560946Y+1340000D02*
X+5544579Y+1340000D01*
M02*
