G04 PROTEUS GERBER X2 FILE*
%TF.GenerationSoftware,Labcenter,Proteus,8.12-SP2-Build31155*%
%TF.CreationDate,2024-12-03T23:36:33+00:00*%
%TF.FileFunction,Copper,L1,Top*%
%TF.FilePolarity,Positive*%
%TF.Part,Single*%
%TF.SameCoordinates,{80aaee04-2193-4ab7-8769-78595995fdec}*%
%FSLAX45Y45*%
%MOMM*%
G01*
%TA.AperFunction,Conductor*%
%ADD10C,0.381000*%
%ADD11C,0.203200*%
%TA.AperFunction,ViaPad*%
%ADD12C,1.016000*%
%ADD13C,0.508000*%
%TA.AperFunction,ComponentPad*%
%ADD14R,1.270000X1.270000*%
%ADD15C,1.524000*%
%TA.AperFunction,ComponentPad*%
%ADD16R,2.032000X2.032000*%
%TA.AperFunction,ComponentPad*%
%ADD17C,2.032000*%
%TA.AperFunction,SMDPad,CuDef*%
%ADD18R,2.032000X0.635000*%
%TA.AperFunction,SMDPad,CuDef*%
%ADD19R,0.635000X2.032000*%
%TA.AperFunction,SMDPad,CuDef*%
%ADD70R,1.270000X3.048000*%
%TA.AperFunction,Profile*%
%ADD71C,0.203200*%
%TD.AperFunction*%
D10*
X+789693Y+2343385D02*
X+789693Y+2537490D01*
X+784147Y+2543036D01*
D11*
X+2750000Y+3067500D02*
X+2064695Y+3067500D01*
X+641000Y+1643805D01*
X+641000Y+1574000D01*
X+1239650Y+4309500D02*
X+1307052Y+4376902D01*
X+1370000Y+4313954D01*
X+1370000Y+4003379D01*
X+1306621Y+3940000D01*
X+1205389Y+3940000D01*
X+1198753Y+3933364D01*
X+1014599Y+3931705D02*
X+717249Y+3931705D01*
X+678954Y+3970000D01*
X+599429Y+3970000D01*
X+536004Y+3906575D01*
X+536004Y+408996D01*
X+641000Y+304000D01*
X+1239650Y+4182500D02*
X+1239650Y+4117636D01*
X+1237162Y+4115148D01*
X+1237162Y+4130388D01*
X+1440000Y+4090000D02*
X+1646873Y+3883127D01*
X+1868737Y+3883127D01*
X+1896098Y+3855766D01*
X+1896098Y+3640954D01*
X+1383592Y+3128448D01*
X+1377960Y+3128448D01*
X+1249512Y+3000000D01*
X+1242000Y+3000000D01*
D10*
X+1239650Y+4055500D02*
X+1244926Y+4050224D01*
X+1244926Y+3989490D01*
X+1207414Y+4027002D01*
X+1205776Y+4027002D01*
X+1252449Y+3856307D02*
X+1252449Y+3747551D01*
X+1260000Y+3740000D01*
X+1250000Y+3750000D01*
D11*
X+1504000Y+3750000D02*
X+1504000Y+3503386D01*
X+1591667Y+3415719D01*
X+1777934Y+3393142D02*
X+5103524Y+3393142D01*
X+5363169Y+3133497D01*
X+6240281Y+3133497D01*
X+6313659Y+3206875D01*
X+6780780Y+3206875D01*
X+6941664Y+3045991D01*
X+6941664Y+1380000D01*
X+6941580Y+1020580D01*
X+6737000Y+816000D01*
D10*
X+988000Y+3000000D02*
X+641000Y+2653000D01*
X+641000Y+2590000D01*
D11*
X+1496000Y+3000000D02*
X+1496000Y+2701408D01*
X+1507000Y+2690408D01*
X+1820000Y+2680000D02*
X+753467Y+1613467D01*
X+753467Y+1538942D01*
X+680000Y+1465475D01*
X+680000Y+1450000D01*
X+476888Y+1440164D02*
X+476888Y+316920D01*
X+595421Y+198387D01*
X+685733Y+198387D01*
X+750000Y+262654D01*
X+750000Y+449000D01*
X+641000Y+558000D01*
D10*
X+1250000Y+1500000D02*
X+1686500Y+1063500D01*
X+2739650Y+1063500D01*
D11*
X+2739650Y+809500D02*
X+3299150Y+250000D01*
X+3496000Y+250000D01*
X+3260350Y+1063500D02*
X+3435064Y+1063500D01*
X+3435600Y+1062964D01*
X+3435600Y+1108118D01*
X+3429955Y+1113763D01*
X+3424240Y+1113763D01*
X+3554133Y+1125052D02*
X+3554133Y+662208D01*
X+3779910Y+436431D01*
X+3904088Y+436431D01*
X+3904088Y-135968D01*
X+3918712Y-135968D01*
X+4169377Y+114697D01*
X+4184730Y+130050D01*
X+4184730Y+158272D01*
X+4286458Y+260000D01*
X+4300000Y+260000D01*
X+4312742Y+272742D01*
X+4477258Y+272742D01*
X+4660444Y+89556D01*
X+4660444Y+46964D01*
X+5106964Y+46964D01*
X+5118323Y+58323D01*
X+5230533Y+58323D01*
X+6907003Y+58323D01*
X+6912577Y+63897D01*
X+6912577Y+852577D01*
X+6940000Y+880000D01*
X+6926426Y+880000D01*
X+3260350Y+936500D02*
X+3362627Y+936500D01*
X+3424311Y+874816D01*
X+3435600Y+886105D01*
X+3424249Y+886105D01*
X+6835107Y+1145748D02*
X+6878710Y+1189351D01*
X+6878710Y+1303793D01*
X+3750000Y+250000D02*
X+3253685Y+746315D01*
X+3060417Y+746315D01*
X+2871220Y+935512D01*
X+2871220Y+1106294D01*
X+2787014Y+1190500D01*
X+2739650Y+1190500D01*
X+4543274Y+1079978D02*
X+4332296Y+869000D01*
X+4250000Y+869000D01*
X+5550000Y+500000D02*
X+5492273Y+557727D01*
X+5492273Y+866329D01*
X+5167071Y+866329D01*
X+5164400Y+869000D01*
X+4250000Y+1377000D02*
X+4295972Y+1377000D01*
X+4392171Y+1473199D01*
X+4392171Y+1637986D01*
X+6296014Y+1637986D01*
X+6356000Y+1578000D01*
X+4250000Y+1250000D02*
X+4299665Y+1250000D01*
X+4450000Y+1400335D01*
X+4450000Y+1580000D01*
X+6100000Y+1580000D01*
X+6356000Y+1324000D01*
X+4250000Y+1123000D02*
X+4297677Y+1123000D01*
X+4505817Y+1331140D01*
X+4505817Y+1518657D01*
X+6113914Y+1331140D02*
X+6356000Y+1089054D01*
X+6356000Y+1070000D01*
X+4250000Y+742000D02*
X+4250000Y+869000D01*
X+4250000Y+488000D02*
X+4250000Y+615000D01*
D10*
X+4250000Y+361000D02*
X+4190153Y+361000D01*
X+4095390Y+455763D01*
X+4095390Y+578003D01*
X+4080057Y+578003D01*
X+3919246Y+581817D02*
X+3791063Y+710000D01*
X+3750000Y+710000D01*
X+5164400Y+1504000D02*
X+5890938Y+1504000D01*
X+5914579Y+1527641D01*
X+5914579Y+1501298D01*
X+5884069Y+1722146D02*
X+4552146Y+1722146D01*
X+4550000Y+1720000D01*
X+4550000Y+1900629D01*
X+4545420Y+1905209D01*
X+4545420Y+1925880D01*
X+4542800Y+1928500D01*
X+5164400Y+1377000D02*
X+5229996Y+1377000D01*
X+5598996Y+1008000D01*
X+5750000Y+1008000D01*
D11*
X+5164400Y+1250000D02*
X+5210166Y+1250000D01*
X+5433274Y+1026892D01*
X+5490481Y+1026892D01*
X+5610616Y+1175631D02*
X+5719310Y+1175631D01*
X+6045390Y+1501711D01*
X+5164400Y+1123000D02*
X+5211310Y+1123000D01*
X+5284535Y+1049775D01*
X+5307418Y+1049775D01*
X+5364625Y+1427342D02*
X+5839444Y+1427342D01*
X+5850886Y+1415900D01*
X+5164400Y+996000D02*
X+5116371Y+996000D01*
X+4666698Y+1445673D01*
X+4559114Y+1445673D01*
D10*
X+5750000Y+1008000D02*
X+5809075Y+948925D01*
X+6615925Y+948925D01*
X+6737000Y+1070000D01*
X+5500000Y+4508000D02*
X+5646283Y+4361717D01*
X+5646283Y+3666541D01*
X+5496000Y+3516258D01*
X+5496000Y+3500000D01*
D11*
X+5500000Y+4254000D02*
X+5354528Y+4399472D01*
X+5354528Y+4549490D01*
X+5448918Y+4643880D01*
X+5549746Y+4643880D01*
X+6184746Y+4008880D01*
X+6864797Y+4008880D01*
X+6881959Y+3991718D01*
X+6881959Y+3500959D01*
X+6737000Y+3356000D01*
X+2930150Y+1946850D02*
X+2930150Y+2119850D01*
X+2920000Y+2130000D01*
X+3493686Y+2130000D01*
X+3495516Y+2128170D01*
X+3495516Y+3285856D01*
X+3507035Y+3297375D01*
X+4595606Y+3297375D01*
X+4607125Y+3285856D01*
X+4923906Y+3481684D02*
X+5442222Y+4000000D01*
X+5500000Y+4000000D01*
X+5242000Y+3500000D02*
X+5242000Y+3370935D01*
X+5338598Y+3274337D01*
X+4250000Y+615000D02*
X+4250000Y+742000D01*
X+3750000Y+2996000D02*
X+3750000Y+3254866D01*
X+3748087Y+3256779D01*
X+4559331Y+3256779D01*
X+4583520Y+3232590D01*
X+4607599Y+3232590D01*
X+4607620Y+3232611D01*
X+4972611Y+3232611D01*
X+4990000Y+3250000D01*
X+4990000Y+2193486D01*
X+4985917Y+2189403D01*
X+4549703Y+2189403D01*
X+4542800Y+2182500D01*
X+3750000Y+2742000D02*
X+3880619Y+2872619D01*
X+3880619Y+3214949D01*
X+3879333Y+3216235D01*
X+4538112Y+3216235D01*
X+4562310Y+3192037D01*
X+4942037Y+3192037D01*
X+4942049Y+3192049D01*
X+4942049Y+2320530D01*
X+3750000Y+2488000D02*
X+3921235Y+2659235D01*
X+3921235Y+3155174D01*
X+3925655Y+3159594D01*
X+4537996Y+3159594D01*
X+4566478Y+3131112D01*
X+4890525Y+3131112D01*
X+4895846Y+3136433D01*
X+4895846Y+2449819D01*
X+4901490Y+2444175D01*
X+4550475Y+2444175D01*
X+4542800Y+2436500D01*
X+4942049Y+2320530D02*
X+4931019Y+2309500D01*
X+4542800Y+2309500D01*
X+3750000Y+1472000D02*
X+4070000Y+1792000D01*
X+4070000Y+2990000D01*
X+4067221Y+2990000D01*
X+4173801Y+2988029D02*
X+4499271Y+2988029D01*
X+4542800Y+2944500D01*
X+3750000Y+1726000D02*
X+3788494Y+1764494D01*
X+3946414Y+1764494D01*
X+4821474Y+2504035D02*
X+4821474Y+2825407D01*
X+4825346Y+2829279D01*
X+4554579Y+2829279D01*
X+4542800Y+2817500D01*
X+3750000Y+1980000D02*
X+3968323Y+1980000D01*
X+3977390Y+1989067D01*
X+4182603Y+1989067D02*
X+4182603Y+2701505D01*
X+4178731Y+2705377D01*
X+4527923Y+2705377D01*
X+4542800Y+2690500D01*
X+3750000Y+2234000D02*
X+3756000Y+2240000D01*
X+3960000Y+2240000D01*
X+3960000Y+2556273D01*
X+3958030Y+2558243D01*
X+4235877Y+2554371D02*
X+4533671Y+2554371D01*
X+4542800Y+2563500D01*
D10*
X+5445549Y+3255983D02*
X+5496000Y+3306434D01*
X+5496000Y+3500000D01*
X+5457200Y+3071500D02*
X+5325148Y+3071500D01*
X+5056836Y+3071500D01*
X+5053201Y+3075135D01*
X+5053201Y+1939331D01*
X+5064870Y+1927662D01*
X+5456362Y+1927662D01*
X+5457200Y+1928500D01*
X+5325148Y+3071500D02*
X+5317384Y+3063736D01*
D11*
X+5457200Y+2944500D02*
X+6241187Y+2944500D01*
X+6274578Y+2977891D01*
X+6511853Y+2977891D01*
X+6523522Y+2989560D01*
X+6523522Y+1999522D01*
X+6356000Y+1832000D01*
X+5457200Y+2817500D02*
X+6238658Y+2817500D01*
X+6342769Y+2713389D01*
X+6348483Y+2713389D01*
X+6391270Y+2713389D01*
X+6470000Y+2634659D01*
X+6470000Y+2420000D01*
X+6470000Y+2200000D01*
X+6356000Y+2086000D01*
X+5457200Y+2690500D02*
X+6005500Y+2690500D01*
X+6356000Y+2340000D01*
X+5457200Y+2563500D02*
X+6074390Y+2563500D01*
X+6111209Y+2526681D01*
X+6102566Y+2518038D01*
X+6113735Y+2657569D02*
X+6292431Y+2657569D01*
X+6356000Y+2594000D01*
X+5457200Y+2436500D02*
X+5810982Y+2436500D01*
X+5893384Y+2518902D01*
X+5893384Y+2510249D01*
X+5885604Y+3032348D02*
X+6255130Y+3032348D01*
X+6210000Y+2880000D02*
X+6324000Y+2880000D01*
X+6356000Y+2848000D01*
X+5457200Y+2309500D02*
X+6168912Y+2309500D01*
X+6266799Y+2211613D01*
X+6600000Y+2210000D02*
X+6600000Y+2970457D01*
X+6468457Y+3102000D01*
X+6356000Y+3102000D01*
X+5457200Y+2182500D02*
X+6105314Y+2182500D01*
X+6317814Y+1970000D01*
X+6330000Y+1970000D01*
X+6330000Y+1969523D01*
X+6542970Y+3339637D02*
X+6372363Y+3339637D01*
X+6356000Y+3356000D01*
X+5457200Y+2055500D02*
X+6166189Y+2055500D01*
X+6251240Y+1970449D01*
X+6251240Y+1733175D01*
X+6282358Y+1702057D01*
X+6889395Y+1702057D01*
X+6901064Y+1713726D01*
X+6901064Y+2833733D01*
X+6772465Y+2962332D01*
X+6772465Y+2974001D01*
X+6601316Y+3386314D02*
X+6377630Y+3610000D01*
X+6356000Y+3610000D01*
D10*
X+3004000Y+2432500D02*
X+3182420Y+2254080D01*
X+3365613Y+2254080D01*
X+3381196Y+2024234D02*
X+3261534Y+2024234D01*
X+3184150Y+1946850D01*
X+996000Y+3750000D02*
X+860000Y+3750000D01*
X+830000Y+3780000D01*
X+870000Y+3420000D02*
X+684000Y+3606000D01*
X+641000Y+3606000D01*
X+917575Y+3562425D02*
X+740000Y+3740000D01*
X+730000Y+3740000D01*
X+721160Y+3731160D01*
X+3004000Y+2432500D02*
X+3004000Y+2715405D01*
X+3005709Y+2717114D01*
X+1023000Y+3777000D02*
X+1005115Y+3759115D01*
X+1239650Y+4944500D02*
X+1109384Y+4944500D01*
X+1097500Y+4932616D01*
X+1097500Y+4520280D01*
X+1101304Y+4516476D01*
X+1101304Y+3855304D01*
X+1023000Y+3777000D01*
X+1005115Y+3759115D02*
X+996000Y+3750000D01*
X+1005115Y+3720000D02*
X+1005115Y+3759115D01*
X+1005115Y+3833591D01*
X+956482Y+3882224D01*
X+956482Y+3853054D01*
X+1005115Y+3720000D02*
X+1005115Y+3462115D01*
X+641000Y+3098000D01*
X+1005115Y+3720000D02*
X+1080000Y+3645115D01*
X+1080000Y+3395262D01*
X+1085833Y+3389429D01*
X+5164400Y+1504000D02*
X+5108918Y+1448518D01*
X+5042962Y+1448518D01*
X+4949126Y+1354682D01*
X+4949126Y+1233170D01*
X+4969806Y+1253850D01*
X+636635Y+2953376D02*
X+669432Y+2986173D01*
X+718950Y+2986173D01*
X+930197Y+3197420D01*
X+1275975Y+3197420D01*
X+1295154Y+3178241D01*
X+1295154Y+3176454D01*
X+1636172Y+3182161D02*
X+1636172Y+3113828D01*
X+1750000Y+3000000D01*
X+2739650Y+936500D02*
X+2739650Y+1063500D01*
X+2567655Y+552887D02*
X+2567655Y+975951D01*
X+1807223Y+1207528D02*
X+1514751Y+1500000D01*
X+1504000Y+1500000D01*
X+1514751Y+1500000D02*
X+1848300Y+1500000D01*
X+2295150Y+1946850D01*
D11*
X+3750000Y+1218000D02*
X+3926367Y+1394367D01*
X+3926367Y+1590998D01*
X+4125769Y+1790400D01*
X+4125769Y+2716471D01*
X+4290399Y+2881101D01*
X+4658855Y+2881101D01*
X+4672303Y+2894549D01*
X+4672303Y+2993086D01*
X+4593889Y+3071500D01*
X+4542800Y+3071500D01*
D10*
X+4250000Y+1504000D02*
X+3977119Y+1504000D01*
X+3975850Y+1505269D01*
X+3975850Y+1570511D01*
X+4184566Y+1779227D01*
X+4184566Y+1920761D01*
X+4208084Y+1920761D01*
X+4247282Y+1959959D01*
X+4247282Y+2042769D01*
X+4232098Y+2057953D01*
X+4540347Y+2057953D01*
X+4542800Y+2055500D01*
X+3750000Y+964000D02*
X+3852256Y+1066256D01*
X+3941541Y+1066256D01*
X+4255121Y+1662059D02*
X+4345276Y+1752214D01*
X+4345276Y+1936440D01*
X+2957683Y+3237798D02*
X+2938781Y+3256700D01*
X+2006700Y+3256700D01*
X+1750000Y+3000000D01*
X+3413378Y+726584D02*
X+3330999Y+808963D01*
X+3284629Y+808963D01*
X+3260350Y+809500D01*
X+3260350Y+1190500D02*
X+3477396Y+1190500D01*
X+3486400Y+1181496D01*
X+3486400Y+808963D01*
X+3330999Y+808963D01*
X+3284629Y+808963D02*
X+3260887Y+808963D01*
X+3260350Y+809500D01*
X+641000Y+2590000D02*
X+641000Y+2336000D01*
X+2656009Y+2463916D02*
X+2527416Y+2463916D01*
X+2496000Y+2432500D01*
X+260000Y+2590000D02*
X+320000Y+2590000D01*
X+440000Y+2710000D01*
X+626927Y+2699996D02*
X+626927Y+2604073D01*
X+641000Y+2590000D01*
X+988000Y+3000000D02*
X+988000Y+3108052D01*
X+978975Y+3117077D01*
X+978975Y+3109858D01*
X+4620377Y+1026401D02*
X+4549076Y+955100D01*
X+4549076Y+705610D01*
X+4250000Y+1504000D02*
X+4267131Y+1486869D01*
X+4267131Y+1477231D01*
X+5457200Y+1928500D02*
X+5574668Y+1811032D01*
X+6062789Y+1811032D01*
X+6170923Y+1702898D01*
X+6170923Y+1716666D01*
D11*
X+6737000Y+3610000D02*
X+6503137Y+3610000D01*
X+6353357Y+3759780D01*
X+6042894Y+3759780D01*
X+5996374Y+3713260D01*
X+4870587Y+3327143D02*
X+4642638Y+3327143D01*
X+4630641Y+3339140D01*
X+3486979Y+3339140D01*
X+3248585Y+3100746D01*
X+3248585Y+2336264D01*
X+3264092Y+1722198D02*
X+3053200Y+1722198D01*
X+3053200Y+1942900D01*
X+3057150Y+1946850D01*
D10*
X+5410000Y+5070000D02*
X+5410000Y+4960000D01*
X+5730000Y+4640000D01*
X+5708072Y+4306734D02*
X+5506806Y+4508000D01*
X+5500000Y+4508000D01*
D11*
X+6210000Y+5380000D02*
X+6210000Y+5116752D01*
X+6107519Y+5014271D01*
X+6107519Y+4205339D01*
X+6088422Y+3700587D02*
X+6132730Y+3656279D01*
X+6222106Y+3656279D01*
X+6065827Y+3500000D01*
X+6004000Y+3500000D01*
X+2160000Y+2230000D02*
X+2402500Y+2472500D01*
X+2402500Y+2720000D01*
X+2750000Y+3067500D01*
X+1120000Y+5620000D02*
X+1434643Y+5305357D01*
X+1529689Y+5305357D01*
X+1671501Y+5305357D01*
X+1941664Y+5035194D01*
X+1941664Y+4210000D01*
X+1941664Y+3665196D01*
X+2004762Y+3602098D01*
X+2004762Y+3494244D01*
X+3199266Y+3313056D02*
X+3130000Y+3243790D01*
X+3130000Y+3050000D01*
X+3561643Y+3037917D02*
X+3708083Y+3037917D01*
X+3750000Y+2996000D01*
X+440000Y+5600000D02*
X+364350Y+5524350D01*
X+364350Y+3072871D01*
X+444081Y+2993140D01*
X+4250000Y+996000D02*
X+4008375Y+996000D01*
X+3997896Y+985521D01*
X+3997896Y+100802D01*
X+3992188Y+95094D01*
X+3992188Y+97812D01*
X+3990000Y+100000D01*
X+955604Y+89386D02*
X+327472Y+89386D01*
X+150795Y+266063D01*
X+150795Y+2734795D01*
X+260000Y+2844000D01*
X+5164400Y+869000D02*
X+5107986Y+812586D01*
X+4690383Y+812586D01*
X+4385797Y+799953D02*
X+4385797Y+452977D01*
X+4413027Y+425747D01*
X+4405728Y+425747D01*
X+4119100Y+295913D02*
X+4045873Y+222686D01*
X+4045873Y+79892D01*
X+3972312Y+6331D01*
X+3959331Y+6331D01*
X+1790731Y+25947D02*
X+1608838Y+207840D01*
X+1608838Y+886688D01*
X+2250000Y+1150000D02*
X+2520000Y+1150000D01*
X+2666702Y+1296702D01*
X+3286702Y+1296702D01*
X+3440000Y+1450000D01*
D12*
X+789693Y+2343385D03*
X+784147Y+2543036D03*
D13*
X+1198753Y+3933364D03*
X+1014599Y+3931705D03*
X+1237162Y+4130388D03*
X+1440000Y+4090000D03*
D12*
X+1205776Y+4027002D03*
X+1252449Y+3856307D03*
D13*
X+1591667Y+3415719D03*
X+1777934Y+3393142D03*
X+1507000Y+2690408D03*
X+1820000Y+2680000D03*
X+680000Y+1450000D03*
X+476888Y+1440164D03*
X+3424240Y+1113763D03*
X+3554133Y+1125052D03*
X+6926426Y+880000D03*
X+3424249Y+886105D03*
X+6835107Y+1145748D03*
X+6878710Y+1303793D03*
X+4543274Y+1079978D03*
X+5550000Y+500000D03*
X+4505817Y+1518657D03*
X+6113914Y+1331140D03*
D12*
X+4080057Y+578003D03*
X+3919246Y+581817D03*
X+5914579Y+1501298D03*
X+5884069Y+1722146D03*
D13*
X+5490481Y+1026892D03*
X+5610616Y+1175631D03*
X+6045390Y+1501711D03*
X+5307418Y+1049775D03*
X+5364625Y+1427342D03*
X+5850886Y+1415900D03*
X+4559114Y+1445673D03*
X+4607125Y+3285856D03*
X+4923906Y+3481684D03*
X+5338598Y+3274337D03*
X+4067221Y+2990000D03*
X+4173801Y+2988029D03*
X+3946414Y+1764494D03*
X+4821474Y+2504035D03*
X+3977390Y+1989067D03*
X+4182603Y+1989067D03*
X+3958030Y+2558243D03*
X+4235877Y+2554371D03*
D12*
X+5317384Y+3063736D03*
X+5445549Y+3255983D03*
D13*
X+6102566Y+2518038D03*
X+6113735Y+2657569D03*
X+5893384Y+2510249D03*
X+5885604Y+3032348D03*
X+6255130Y+3032348D03*
X+6210000Y+2880000D03*
X+6266799Y+2211613D03*
X+6600000Y+2210000D03*
X+6330000Y+1969523D03*
X+6542970Y+3339637D03*
X+6772465Y+2974001D03*
X+6601316Y+3386314D03*
D12*
X+3365613Y+2254080D03*
X+3381196Y+2024234D03*
X+830000Y+3780000D03*
X+870000Y+3420000D03*
X+917575Y+3562425D03*
X+721160Y+3731160D03*
X+3005709Y+2717114D03*
X+956482Y+3853054D03*
X+1085833Y+3389429D03*
X+4969806Y+1253850D03*
X+636635Y+2953376D03*
X+1295154Y+3176454D03*
X+1636172Y+3182161D03*
X+2567655Y+552887D03*
X+2567655Y+975951D03*
X+1807223Y+1207528D03*
X+3941541Y+1066256D03*
X+4255121Y+1662059D03*
X+4345276Y+1936440D03*
X+2957683Y+3237798D03*
X+3413378Y+726584D03*
X+2656009Y+2463916D03*
X+440000Y+2710000D03*
X+626927Y+2699996D03*
X+978975Y+3109858D03*
X+4620377Y+1026401D03*
X+4549076Y+705610D03*
X+4267131Y+1477231D03*
X+6170923Y+1716666D03*
D13*
X+5996374Y+3713260D03*
X+4870587Y+3327143D03*
X+3248585Y+2336264D03*
X+3264092Y+1722198D03*
D12*
X+5730000Y+4640000D03*
X+5708072Y+4306734D03*
D13*
X+6107519Y+4205339D03*
X+6088422Y+3700587D03*
X+2004762Y+3494244D03*
X+3199266Y+3313056D03*
X+3130000Y+3050000D03*
X+3561643Y+3037917D03*
X+444081Y+2993140D03*
X+3990000Y+100000D03*
X+955604Y+89386D03*
X+4690383Y+812586D03*
X+4385797Y+799953D03*
X+4405728Y+425747D03*
X+4119100Y+295913D03*
X+3959331Y+6331D03*
X+1790731Y+25947D03*
X+1608838Y+886688D03*
X+2250000Y+1150000D03*
D14*
X+260000Y+4876000D03*
D15*
X+641000Y+4876000D03*
X+260000Y+4622000D03*
X+641000Y+4622000D03*
X+260000Y+4368000D03*
X+641000Y+4368000D03*
X+260000Y+4114000D03*
X+641000Y+4114000D03*
X+260000Y+3860000D03*
X+641000Y+3860000D03*
X+260000Y+3606000D03*
X+641000Y+3606000D03*
X+260000Y+3352000D03*
X+641000Y+3352000D03*
X+260000Y+3098000D03*
X+641000Y+3098000D03*
X+260000Y+2844000D03*
X+641000Y+2844000D03*
X+260000Y+2590000D03*
X+641000Y+2590000D03*
X+260000Y+2336000D03*
X+641000Y+2336000D03*
X+260000Y+2082000D03*
X+641000Y+2082000D03*
X+260000Y+1828000D03*
X+641000Y+1828000D03*
X+260000Y+1574000D03*
X+641000Y+1574000D03*
X+260000Y+1320000D03*
X+641000Y+1320000D03*
X+260000Y+1066000D03*
X+641000Y+1066000D03*
X+260000Y+812000D03*
X+641000Y+812000D03*
X+260000Y+558000D03*
X+641000Y+558000D03*
X+260000Y+304000D03*
X+641000Y+304000D03*
D14*
X+6356000Y+4880000D03*
D15*
X+6737000Y+4880000D03*
X+6356000Y+4626000D03*
X+6737000Y+4626000D03*
X+6356000Y+4372000D03*
X+6737000Y+4372000D03*
X+6356000Y+4118000D03*
X+6737000Y+4118000D03*
X+6356000Y+3864000D03*
X+6737000Y+3864000D03*
X+6356000Y+3610000D03*
X+6737000Y+3610000D03*
X+6356000Y+3356000D03*
X+6737000Y+3356000D03*
X+6356000Y+3102000D03*
X+6737000Y+3102000D03*
X+6356000Y+2848000D03*
X+6737000Y+2848000D03*
X+6356000Y+2594000D03*
X+6737000Y+2594000D03*
X+6356000Y+2340000D03*
X+6737000Y+2340000D03*
X+6356000Y+2086000D03*
X+6737000Y+2086000D03*
X+6356000Y+1832000D03*
X+6737000Y+1832000D03*
X+6356000Y+1578000D03*
X+6737000Y+1578000D03*
X+6356000Y+1324000D03*
X+6737000Y+1324000D03*
X+6356000Y+1070000D03*
X+6737000Y+1070000D03*
X+6356000Y+816000D03*
X+6737000Y+816000D03*
X+6356000Y+562000D03*
X+6737000Y+562000D03*
X+6356000Y+308000D03*
X+6737000Y+308000D03*
D16*
X+6004000Y+3500000D03*
X+5750000Y+3500000D03*
X+5496000Y+3500000D03*
X+5242000Y+3500000D03*
X+3750000Y+2996000D03*
X+3750000Y+2742000D03*
X+3750000Y+2488000D03*
X+3750000Y+2234000D03*
X+3750000Y+1980000D03*
X+3750000Y+1726000D03*
X+3750000Y+1472000D03*
X+3750000Y+1218000D03*
X+3750000Y+964000D03*
X+3750000Y+710000D03*
D17*
X+1250000Y+1500000D03*
X+1504000Y+1500000D03*
D16*
X+996000Y+3750000D03*
X+1250000Y+3750000D03*
X+1504000Y+3750000D03*
X+1758000Y+3750000D03*
X+1750000Y+3000000D03*
X+1496000Y+3000000D03*
X+1242000Y+3000000D03*
X+988000Y+3000000D03*
D17*
X+5500000Y+4508000D03*
X+5500000Y+4254000D03*
X+5500000Y+4000000D03*
X+3750000Y+250000D03*
X+3496000Y+250000D03*
X+2254000Y+500000D03*
X+2254000Y+754000D03*
D18*
X+5457200Y+1928500D03*
X+5457200Y+2055500D03*
X+5457200Y+2182500D03*
X+5457200Y+2309500D03*
X+5457200Y+2436500D03*
X+5457200Y+2563500D03*
X+5457200Y+2690500D03*
X+5457200Y+2817500D03*
X+5457200Y+2944500D03*
X+5457200Y+3071500D03*
X+4542800Y+3071500D03*
X+4542800Y+2944500D03*
X+4542800Y+2817500D03*
X+4542800Y+2690500D03*
X+4542800Y+2563500D03*
X+4542800Y+2436500D03*
X+4542800Y+2309500D03*
X+4542800Y+2182500D03*
X+4542800Y+2055500D03*
X+4542800Y+1928500D03*
X+1239650Y+4944500D03*
X+1239650Y+4817500D03*
X+1239650Y+4690500D03*
X+1239650Y+4563500D03*
X+1239650Y+4436500D03*
X+1239650Y+4309500D03*
X+1239650Y+4182500D03*
X+1239650Y+4055500D03*
X+1760350Y+4055500D03*
X+1760350Y+4182500D03*
X+1760350Y+4309500D03*
X+1760350Y+4436500D03*
X+1760350Y+4563500D03*
X+1760350Y+4690500D03*
X+1760350Y+4817500D03*
X+1760350Y+4944500D03*
X+2739650Y+1190500D03*
X+2739650Y+1063500D03*
X+2739650Y+936500D03*
X+2739650Y+809500D03*
X+3260350Y+809500D03*
X+3260350Y+936500D03*
X+3260350Y+1063500D03*
X+3260350Y+1190500D03*
D19*
X+3184150Y+1946850D03*
X+3057150Y+1946850D03*
X+2930150Y+1946850D03*
X+2803150Y+1946850D03*
X+2676150Y+1946850D03*
X+2549150Y+1946850D03*
X+2422150Y+1946850D03*
X+2295150Y+1946850D03*
X+2295150Y+1426150D03*
X+2422150Y+1426150D03*
X+2549150Y+1426150D03*
X+2676150Y+1426150D03*
X+2803150Y+1426150D03*
X+2930150Y+1426150D03*
X+3057150Y+1426150D03*
X+3184150Y+1426150D03*
D18*
X+4250000Y+1504000D03*
X+4250000Y+1377000D03*
X+4250000Y+1250000D03*
X+4250000Y+1123000D03*
X+4250000Y+996000D03*
X+4250000Y+869000D03*
X+4250000Y+742000D03*
X+4250000Y+615000D03*
X+4250000Y+488000D03*
X+4250000Y+361000D03*
X+5164400Y+361000D03*
X+5164400Y+488000D03*
X+5164400Y+615000D03*
X+5164400Y+742000D03*
X+5164400Y+869000D03*
X+5164400Y+996000D03*
X+5164400Y+1123000D03*
X+5164400Y+1250000D03*
X+5164400Y+1377000D03*
X+5164400Y+1504000D03*
D17*
X+5750000Y+500000D03*
X+5750000Y+754000D03*
X+5750000Y+1008000D03*
D70*
X+2496000Y+2432500D03*
X+3004000Y+2432500D03*
X+2750000Y+3067500D03*
D17*
X+3440000Y+1450000D03*
X+2160000Y+2230000D03*
X+5410000Y+5070000D03*
X+6210000Y+5380000D03*
X+1120000Y+5620000D03*
X+440000Y+5600000D03*
D71*
X+0Y+0D02*
X+1650000Y+0D01*
X+7000000Y+0D02*
X+7000000Y+6000000D01*
X+5000000Y+6000000D01*
X+5000000Y+3700000D01*
X+4800000Y+3500000D01*
X+2200000Y+3500000D01*
X+2000000Y+3700000D02*
X+2000000Y+6000000D01*
X+0Y+6000000D01*
X+0Y+0D01*
X+2000000Y+3700000D02*
X+2200000Y+3500000D01*
X+5160000Y+0D02*
X+7000000Y+0D01*
X+1750000Y-200000D02*
X+5050000Y-200000D01*
X+1650000Y+0D02*
X+1750000Y-200000D01*
X+5160000Y+0D02*
X+5050000Y-200000D01*
X+4550045Y+50000D02*
X+4549508Y+63142D01*
X+4545144Y+89427D01*
X+4536029Y+115712D01*
X+4521182Y+141997D01*
X+4498470Y+168118D01*
X+4472185Y+187898D01*
X+4445900Y+200658D01*
X+4419615Y+208108D01*
X+4393330Y+210987D01*
X+4389000Y+211045D01*
X+4227955Y+50000D02*
X+4228492Y+63142D01*
X+4232856Y+89427D01*
X+4241971Y+115712D01*
X+4256818Y+141997D01*
X+4279530Y+168118D01*
X+4305815Y+187898D01*
X+4332100Y+200658D01*
X+4358385Y+208108D01*
X+4384670Y+210987D01*
X+4389000Y+211045D01*
X+4227955Y+50000D02*
X+4228492Y+36858D01*
X+4232856Y+10573D01*
X+4241971Y-15712D01*
X+4256818Y-41997D01*
X+4279530Y-68118D01*
X+4305815Y-87898D01*
X+4332100Y-100658D01*
X+4358385Y-108108D01*
X+4384670Y-110987D01*
X+4389000Y-111045D01*
X+4550045Y+50000D02*
X+4549508Y+36858D01*
X+4545144Y+10573D01*
X+4536029Y-15712D01*
X+4521182Y-41997D01*
X+4498470Y-68118D01*
X+4472185Y-87898D01*
X+4445900Y-100658D01*
X+4419615Y-108108D01*
X+4393330Y-110987D01*
X+4389000Y-111045D01*
X+6074045Y+5130000D02*
X+6073508Y+5143142D01*
X+6069144Y+5169427D01*
X+6060029Y+5195712D01*
X+6045182Y+5221997D01*
X+6022470Y+5248118D01*
X+5996185Y+5267898D01*
X+5969900Y+5280658D01*
X+5943615Y+5288108D01*
X+5917330Y+5290987D01*
X+5913000Y+5291045D01*
X+5751955Y+5130000D02*
X+5752492Y+5143142D01*
X+5756856Y+5169427D01*
X+5765971Y+5195712D01*
X+5780818Y+5221997D01*
X+5803530Y+5248118D01*
X+5829815Y+5267898D01*
X+5856100Y+5280658D01*
X+5882385Y+5288108D01*
X+5908670Y+5290987D01*
X+5913000Y+5291045D01*
X+5751955Y+5130000D02*
X+5752492Y+5116858D01*
X+5756856Y+5090573D01*
X+5765971Y+5064288D01*
X+5780818Y+5038003D01*
X+5803530Y+5011882D01*
X+5829815Y+4992102D01*
X+5856100Y+4979342D01*
X+5882385Y+4971892D01*
X+5908670Y+4969013D01*
X+5913000Y+4968955D01*
X+6074045Y+5130000D02*
X+6073508Y+5116858D01*
X+6069144Y+5090573D01*
X+6060029Y+5064288D01*
X+6045182Y+5038003D01*
X+6022470Y+5011882D01*
X+5996185Y+4992102D01*
X+5969900Y+4979342D01*
X+5943615Y+4971892D01*
X+5917330Y+4969013D01*
X+5913000Y+4968955D01*
X+1248045Y+5257000D02*
X+1247508Y+5270142D01*
X+1243144Y+5296427D01*
X+1234029Y+5322712D01*
X+1219182Y+5348997D01*
X+1196470Y+5375118D01*
X+1170185Y+5394898D01*
X+1143900Y+5407658D01*
X+1117615Y+5415108D01*
X+1091330Y+5417987D01*
X+1087000Y+5418045D01*
X+925955Y+5257000D02*
X+926492Y+5270142D01*
X+930856Y+5296427D01*
X+939971Y+5322712D01*
X+954818Y+5348997D01*
X+977530Y+5375118D01*
X+1003815Y+5394898D01*
X+1030100Y+5407658D01*
X+1056385Y+5415108D01*
X+1082670Y+5417987D01*
X+1087000Y+5418045D01*
X+925955Y+5257000D02*
X+926492Y+5243858D01*
X+930856Y+5217573D01*
X+939971Y+5191288D01*
X+954818Y+5165003D01*
X+977530Y+5138882D01*
X+1003815Y+5119102D01*
X+1030100Y+5106342D01*
X+1056385Y+5098892D01*
X+1082670Y+5096013D01*
X+1087000Y+5095955D01*
X+1248045Y+5257000D02*
X+1247508Y+5243858D01*
X+1243144Y+5217573D01*
X+1234029Y+5191288D01*
X+1219182Y+5165003D01*
X+1196470Y+5138882D01*
X+1170185Y+5119102D01*
X+1143900Y+5106342D01*
X+1117615Y+5098892D01*
X+1091330Y+5096013D01*
X+1087000Y+5095955D01*
M02*
